<svg width="60" height="60" viewBox="0 0 60 60" fill="none" xmlns="http://www.w3.org/2000/svg">
<g id="icon">
<path id="Ellipse 1628" d="M50 30C50 41.0457 41.0457 50 30 50C18.9543 50 10 41.0457 10 30C10 18.9543 18.9543 10 30 10C41.0457 10 50 18.9543 50 30Z" stroke="white" stroke-width="2" stroke-linecap="square"/>
<path id="Ellipse 1629" d="M35 28C35 30.7614 32.7614 33 30 33C27.2386 33 25 30.7614 25 28C25 25.2386 27.2386 23 30 23C32.7614 23 35 25.2386 35 28Z" fill="white"/>
<path id="Vector" d="M30 18C35.5229 18 40 22.5269 40 28.1111L40 47.3244C37.0583 49.0261 33.6429 50 30 50C26.3571 50 22.9417 49.0261 20 47.3244L20 28.1111C20 22.5269 24.4771 18 30 18Z" stroke="white" stroke-width="2" stroke-linecap="square"/>
</g>
</svg>
