<svg width="42" height="42" viewBox="0 0 42 42" fill="none" xmlns="http://www.w3.org/2000/svg">
<path d="M0.999999 21C0.999999 32.0457 9.9543 41 21 41C32.0457 41 41 32.0457 41 21L33 21C33 27.6274 27.6274 33 21 33C14.3726 33 9 27.6274 9 21C9 14.3726 14.3726 9 21 9L41 9L41 1L21 0.999999C9.9543 0.999999 1 9.9543 0.999999 21Z" stroke="white" stroke-width="2" stroke-linecap="square"/>
<path d="M41 1L29 0.999999L29 9L41 9L41 1Z" fill="white" stroke="white" stroke-width="2" stroke-linecap="square"/>
<circle cx="21" cy="20" r="4" transform="rotate(-90 21 20)" fill="white" stroke="white" stroke-width="2" stroke-linecap="square"/>
</svg>
