<svg width="20" height="20" viewBox="0 0 20 20" fill="none" xmlns="http://www.w3.org/2000/svg">
<path id="Star 1" d="M9.58631 0.30861C9.72265 -0.102869 10.2774 -0.102871 10.4137 0.308609L12.5772 6.83833C12.6374 7.01985 12.7989 7.14293 12.982 7.14684L19.5702 7.28769C19.9853 7.29656 20.1568 7.85001 19.8258 8.1132L14.5748 12.2896C14.4288 12.4057 14.3672 12.6049 14.4202 12.7888L16.3284 19.4056C16.4486 19.8225 15.9999 20.1646 15.659 19.9158L10.2502 15.9672C10.0998 15.8575 9.9002 15.8575 9.74984 15.9672L4.34098 19.9158C4.00013 20.1646 3.55137 19.8225 3.67162 19.4056L5.57979 12.7888C5.63283 12.6049 5.57115 12.4057 5.42518 12.2896L0.174151 8.1132C-0.15675 7.85001 0.0146621 7.29656 0.429825 7.28769L7.018 7.14684C7.20114 7.14293 7.36262 7.01985 7.42277 6.83833L9.58631 0.30861Z" fill="black"/>
</svg>
