<svg width="91" height="57" viewBox="0 0 91 57" fill="none" xmlns="http://www.w3.org/2000/svg">
<g filter="url(#filter0_d_449_804)">
<path fill-rule="evenodd" clip-rule="evenodd" d="M10 2V15L13.6363 11.6698L13.8322 11.5083L20 11.5179L10 2Z" fill="#6699E6"/>
<path fill-rule="evenodd" clip-rule="evenodd" d="M10 2V15L13.6363 11.6698L13.8322 11.5083L20 11.5179L10 2Z" stroke="white"/>
</g>
<g filter="url(#filter1_d_449_804)">
<rect x="10" y="20" width="71" height="23" rx="2" fill="#6699E6"/>
<path d="M20.9588 27.2727H22.5568L25.3352 34.0568H25.4375L28.2159 27.2727H29.8139V36H28.5611V29.6847H28.4801L25.9062 35.9872H24.8665L22.2926 29.6804H22.2116V36H20.9588V27.2727ZM33.5309 36.1449C33.1161 36.1449 32.7411 36.0682 32.4059 35.9148C32.0707 35.7585 31.805 35.5327 31.609 35.2372C31.4158 34.9418 31.3192 34.5795 31.3192 34.1506C31.3192 33.7812 31.3903 33.4773 31.5323 33.2386C31.6744 33 31.8661 32.8111 32.1076 32.6719C32.3491 32.5327 32.619 32.4276 32.9173 32.3565C33.2156 32.2855 33.5195 32.2315 33.8292 32.1946C34.2212 32.1491 34.5394 32.1122 34.7837 32.0838C35.0281 32.0526 35.2056 32.0028 35.3164 31.9347C35.4272 31.8665 35.4826 31.7557 35.4826 31.6023V31.5724C35.4826 31.2003 35.3775 30.9119 35.1673 30.7074C34.9599 30.5028 34.6502 30.4006 34.2383 30.4006C33.8093 30.4006 33.4712 30.4957 33.2241 30.6861C32.9798 30.8736 32.8107 31.0824 32.717 31.3125L31.5195 31.0398C31.6616 30.642 31.869 30.321 32.1417 30.0767C32.4173 29.8295 32.734 29.6506 33.092 29.5398C33.4499 29.4261 33.8263 29.3693 34.2212 29.3693C34.4826 29.3693 34.7596 29.4006 35.0522 29.4631C35.3477 29.5227 35.6232 29.6335 35.8789 29.7955C36.1374 29.9574 36.3491 30.1889 36.5138 30.4901C36.6786 30.7884 36.761 31.1761 36.761 31.6534V36H35.5167V35.1051H35.4656C35.3832 35.2699 35.2596 35.4318 35.0948 35.5909C34.93 35.75 34.7184 35.8821 34.4599 35.9872C34.2013 36.0923 33.8917 36.1449 33.5309 36.1449ZM33.8079 35.1222C34.1602 35.1222 34.4613 35.0526 34.7113 34.9134C34.9641 34.7741 35.1559 34.5923 35.2866 34.3679C35.4201 34.1406 35.4869 33.8977 35.4869 33.6392V32.7955C35.4414 32.8409 35.3533 32.8835 35.2227 32.9233C35.0948 32.9602 34.9485 32.9929 34.7837 33.0213C34.619 33.0469 34.4585 33.071 34.3022 33.0938C34.146 33.1136 34.0153 33.1307 33.9102 33.1449C33.663 33.1761 33.4371 33.2287 33.2326 33.3026C33.0309 33.3764 32.869 33.483 32.7468 33.6222C32.6275 33.7585 32.5678 33.9403 32.5678 34.1676C32.5678 34.483 32.6843 34.7216 32.9173 34.8835C33.1502 35.0426 33.4471 35.1222 33.8079 35.1222ZM39.7322 32.1136V36H38.4581V29.4545H39.6811V30.5199H39.7621C39.9126 30.1733 40.1484 29.8949 40.4695 29.6847C40.7933 29.4744 41.201 29.3693 41.6925 29.3693C42.1385 29.3693 42.5291 29.4631 42.8643 29.6506C43.1996 29.8352 43.4595 30.1108 43.6442 30.4773C43.8288 30.8437 43.9212 31.2969 43.9212 31.8366V36H42.647V31.9901C42.647 31.5156 42.5234 31.1449 42.2763 30.8778C42.0291 30.608 41.6896 30.473 41.2578 30.473C40.9624 30.473 40.6996 30.5369 40.4695 30.6648C40.2422 30.7926 40.0618 30.9801 39.9283 31.2273C39.7976 31.4716 39.7322 31.767 39.7322 32.1136ZM47.5348 36.1449C47.12 36.1449 46.745 36.0682 46.4098 35.9148C46.0746 35.7585 45.8089 35.5327 45.6129 35.2372C45.4197 34.9418 45.3232 34.5795 45.3232 34.1506C45.3232 33.7812 45.3942 33.4773 45.5362 33.2386C45.6783 33 45.87 32.8111 46.1115 32.6719C46.353 32.5327 46.6229 32.4276 46.9212 32.3565C47.2195 32.2855 47.5234 32.2315 47.8331 32.1946C48.2251 32.1491 48.5433 32.1122 48.7876 32.0838C49.032 32.0526 49.2095 32.0028 49.3203 31.9347C49.4311 31.8665 49.4865 31.7557 49.4865 31.6023V31.5724C49.4865 31.2003 49.3814 30.9119 49.1712 30.7074C48.9638 30.5028 48.6541 30.4006 48.2422 30.4006C47.8132 30.4006 47.4751 30.4957 47.228 30.6861C46.9837 30.8736 46.8146 31.0824 46.7209 31.3125L45.5234 31.0398C45.6655 30.642 45.8729 30.321 46.1456 30.0767C46.4212 29.8295 46.7379 29.6506 47.0959 29.5398C47.4538 29.4261 47.8303 29.3693 48.2251 29.3693C48.4865 29.3693 48.7635 29.4006 49.0561 29.4631C49.3516 29.5227 49.6271 29.6335 49.8828 29.7955C50.1413 29.9574 50.353 30.1889 50.5178 30.4901C50.6825 30.7884 50.7649 31.1761 50.7649 31.6534V36H49.5206V35.1051H49.4695C49.3871 35.2699 49.2635 35.4318 49.0987 35.5909C48.9339 35.75 48.7223 35.8821 48.4638 35.9872C48.2053 36.0923 47.8956 36.1449 47.5348 36.1449ZM47.8118 35.1222C48.1641 35.1222 48.4652 35.0526 48.7152 34.9134C48.968 34.7741 49.1598 34.5923 49.2905 34.3679C49.424 34.1406 49.4908 33.8977 49.4908 33.6392V32.7955C49.4453 32.8409 49.3572 32.8835 49.2266 32.9233C49.0987 32.9602 48.9524 32.9929 48.7876 33.0213C48.6229 33.0469 48.4624 33.071 48.3061 33.0938C48.1499 33.1136 48.0192 33.1307 47.9141 33.1449C47.6669 33.1761 47.4411 33.2287 47.2365 33.3026C47.0348 33.3764 46.8729 33.483 46.7507 33.6222C46.6314 33.7585 46.5717 33.9403 46.5717 34.1676C46.5717 34.483 46.6882 34.7216 46.9212 34.8835C47.1541 35.0426 47.451 35.1222 47.8118 35.1222ZM55.2063 38.5909C54.6864 38.5909 54.239 38.5227 53.864 38.3864C53.4918 38.25 53.1879 38.0696 52.9521 37.8452C52.7163 37.6207 52.5401 37.375 52.4237 37.108L53.5188 36.6562C53.5955 36.7812 53.6978 36.9134 53.8256 37.0526C53.9563 37.1946 54.1325 37.3153 54.354 37.4148C54.5785 37.5142 54.8668 37.5639 55.2191 37.5639C55.7021 37.5639 56.1012 37.446 56.4165 37.2102C56.7319 36.9773 56.8896 36.6051 56.8896 36.0938V34.8068H56.8086C56.7319 34.946 56.6211 35.1009 56.4762 35.2713C56.3342 35.4418 56.1381 35.5895 55.8881 35.7145C55.6381 35.8395 55.3129 35.902 54.9123 35.902C54.3952 35.902 53.9293 35.7812 53.5146 35.5398C53.1026 35.2955 52.7759 34.9361 52.5344 34.4616C52.2958 33.9844 52.1765 33.3977 52.1765 32.7017C52.1765 32.0057 52.2944 31.4091 52.5302 30.9119C52.7688 30.4148 53.0955 30.0341 53.5103 29.7699C53.9251 29.5028 54.3952 29.3693 54.9208 29.3693C55.3271 29.3693 55.6552 29.4375 55.9052 29.5739C56.1552 29.7074 56.3498 29.8636 56.489 30.0426C56.631 30.2216 56.7404 30.3793 56.8171 30.5156H56.9109V29.4545H58.1594V36.1449C58.1594 36.7074 58.0288 37.169 57.7674 37.5298C57.506 37.8906 57.1523 38.1577 56.7063 38.331C56.2631 38.5043 55.7631 38.5909 55.2063 38.5909ZM55.1935 34.8452C55.56 34.8452 55.8697 34.7599 56.1225 34.5895C56.3782 34.4162 56.5714 34.169 56.7021 33.848C56.8356 33.5241 56.9023 33.1364 56.9023 32.6847C56.9023 32.2443 56.837 31.8565 56.7063 31.5213C56.5756 31.1861 56.3839 30.9247 56.131 30.7372C55.8782 30.5469 55.5657 30.4517 55.1935 30.4517C54.81 30.4517 54.4904 30.5511 54.2347 30.75C53.979 30.946 53.7859 31.2131 53.6552 31.5511C53.5273 31.8892 53.4634 32.267 53.4634 32.6847C53.4634 33.1136 53.5288 33.4901 53.6594 33.8139C53.7901 34.1378 53.9833 34.3906 54.239 34.5724C54.4975 34.7543 54.8157 34.8452 55.1935 34.8452ZM62.6893 36.1321C62.0444 36.1321 61.489 35.9943 61.0231 35.7188C60.56 35.4403 60.2021 35.0497 59.9492 34.5469C59.6992 34.0412 59.5742 33.4489 59.5742 32.7699C59.5742 32.0994 59.6992 31.5085 59.9492 30.9972C60.2021 30.4858 60.5543 30.0866 61.006 29.7997C61.4606 29.5128 61.9918 29.3693 62.5998 29.3693C62.9691 29.3693 63.3271 29.4304 63.6737 29.5526C64.0202 29.6747 64.3313 29.8665 64.6069 30.1278C64.8825 30.3892 65.0998 30.7287 65.2589 31.1463C65.418 31.5611 65.4975 32.0653 65.4975 32.6591V33.1108H60.2944V32.1562H64.2489C64.2489 31.821 64.1808 31.5241 64.0444 31.2656C63.908 31.0043 63.7163 30.7983 63.4691 30.6477C63.2248 30.4972 62.9379 30.4219 62.6083 30.4219C62.2504 30.4219 61.9379 30.5099 61.6708 30.6861C61.4066 30.8594 61.2021 31.0866 61.0572 31.3679C60.9151 31.6463 60.8441 31.9489 60.8441 32.2756V33.0213C60.8441 33.4588 60.9208 33.831 61.0742 34.1378C61.2305 34.4446 61.4478 34.679 61.7262 34.8409C62.0046 35 62.3299 35.0795 62.7021 35.0795C62.9435 35.0795 63.1637 35.0455 63.3626 34.9773C63.5614 34.9062 63.7333 34.8011 63.8782 34.6619C64.0231 34.5227 64.1339 34.3509 64.2106 34.1463L65.4165 34.3636C65.32 34.7187 65.1467 35.0298 64.8967 35.2969C64.6495 35.5611 64.3384 35.767 63.9634 35.9148C63.5913 36.0597 63.1665 36.1321 62.6893 36.1321ZM66.9112 36V29.4545H68.1428V30.4943H68.2109C68.3303 30.142 68.5405 29.8651 68.8416 29.6634C69.1456 29.4588 69.4893 29.3565 69.8729 29.3565C69.9524 29.3565 70.0462 29.3594 70.1541 29.3651C70.2649 29.3707 70.3516 29.3778 70.4141 29.3864V30.6051C70.3629 30.5909 70.272 30.5753 70.1413 30.5582C70.0107 30.5384 69.88 30.5284 69.7493 30.5284C69.4482 30.5284 69.1797 30.5923 68.9439 30.7202C68.7109 30.8452 68.5263 31.0199 68.3899 31.2443C68.2536 31.4659 68.1854 31.7187 68.1854 32.0028V36H66.9112Z" fill="white"/>
</g>
<defs>
<filter id="filter0_d_449_804" x="8.5" y="0.833984" width="13.75" height="17.3018" filterUnits="userSpaceOnUse" color-interpolation-filters="sRGB">
<feFlood flood-opacity="0" result="BackgroundImageFix"/>
<feColorMatrix in="SourceAlpha" type="matrix" values="0 0 0 0 0 0 0 0 0 0 0 0 0 0 0 0 0 0 127 0" result="hardAlpha"/>
<feOffset dy="1"/>
<feGaussianBlur stdDeviation="0.5"/>
<feComposite in2="hardAlpha" operator="out"/>
<feColorMatrix type="matrix" values="0 0 0 0 0 0 0 0 0 0 0 0 0 0 0 0 0 0 0.25 0"/>
<feBlend mode="normal" in2="BackgroundImageFix" result="effect1_dropShadow_449_804"/>
<feBlend mode="normal" in="SourceGraphic" in2="effect1_dropShadow_449_804" result="shape"/>
</filter>
<filter id="filter1_d_449_804" x="0" y="14" width="91" height="43" filterUnits="userSpaceOnUse" color-interpolation-filters="sRGB">
<feFlood flood-opacity="0" result="BackgroundImageFix"/>
<feColorMatrix in="SourceAlpha" type="matrix" values="0 0 0 0 0 0 0 0 0 0 0 0 0 0 0 0 0 0 127 0" result="hardAlpha"/>
<feOffset dy="4"/>
<feGaussianBlur stdDeviation="5"/>
<feColorMatrix type="matrix" values="0 0 0 0 0.196078 0 0 0 0 0.286275 0 0 0 0 0.392157 0 0 0 0.1 0"/>
<feBlend mode="normal" in2="BackgroundImageFix" result="effect1_dropShadow_449_804"/>
<feBlend mode="normal" in="SourceGraphic" in2="effect1_dropShadow_449_804" result="shape"/>
</filter>
</defs>
</svg>
