<svg xmlns="http://www.w3.org/2000/svg" width="165" height="26" viewBox="0 0 165 26" fill="none">
  <g clip-path="url(#clip0_1864_152657)">
    <path d="M113.817 3.57692C113.817 5.29021 112.408 6.68881 110.682 6.68881C108.956 6.68881 107.583 5.29021 107.583 3.57692C107.583 1.86364 108.956 0.5 110.682 0.5C112.408 0.5 113.817 1.86364 113.817 3.57692Z" fill="url(#paint0_linear_1864_152657)"/>
    <path d="M113.394 24.1713C113.394 24.6734 112.987 25.0804 112.485 25.0804H108.879C108.377 25.0804 107.97 24.6734 107.97 24.1713V9.1014C107.97 8.59932 108.377 8.19231 108.879 8.19231H112.485C112.987 8.19231 113.394 8.59932 113.394 9.1014V24.1713Z" fill="url(#paint1_linear_1864_152657)"/>
    <path d="M34.2054 25.0804C34.9454 25.0804 35.3753 24.2435 34.9445 23.642L29.7929 16.4496C29.554 16.1161 29.5681 15.6639 29.8273 15.3459L34.4487 9.67574C34.9327 9.08187 34.5102 8.19231 33.744 8.19231H29.5548C29.2722 8.19231 29.0056 8.32377 28.8335 8.54801L25.5592 12.8157C25.0304 13.5048 23.9288 13.1309 23.9288 12.2623V2.66783C23.9288 2.16575 23.5218 1.75874 23.0197 1.75874H19.4137C18.9116 1.75874 18.5046 2.16575 18.5046 2.66783V24.1713C18.5046 24.6734 18.9116 25.0804 19.4137 25.0804H23.0197C23.5218 25.0804 23.9288 24.6734 23.9288 24.1713V21.3564C23.9288 21.142 24.0046 20.9346 24.1427 20.7706L24.7443 20.0566C25.1418 19.5848 25.8838 19.6375 26.2106 20.1608L29.0156 24.6528C29.1817 24.9188 29.4731 25.0804 29.7867 25.0804H34.2054Z" fill="url(#paint2_linear_1864_152657)"/>
    <path d="M7.99525 25.5C12.8559 25.5 15.7089 23.1923 15.7089 19.9755C15.7089 15.413 11.4255 14.6926 8.50452 14.2013C6.99327 13.9471 5.84671 13.7542 5.84671 13.1224C5.84671 12.458 6.69204 11.9685 7.96003 11.9685C9.48217 11.9685 10.9456 12.4538 12.0154 13.1062C12.5267 13.4181 13.2439 13.3039 13.5306 12.7781L14.657 10.7122C14.8758 10.3109 14.7647 9.80613 14.377 9.56414C12.6436 8.48241 10.4767 7.77273 7.92481 7.77273C3.24028 7.77273 0.633849 10.3601 0.633849 13.3322C0.633849 17.7442 4.73607 18.4173 7.65852 18.8968C9.27546 19.1621 10.5312 19.3681 10.5312 20.1154C10.5312 20.8496 9.86202 21.3042 8.24181 21.3042C6.62558 21.3042 4.55282 20.5564 3.14448 19.6811C2.65866 19.3791 1.98515 19.4903 1.69592 19.9838L0.375652 22.2364C0.157003 22.6095 0.228528 23.0891 0.578736 23.3428C2.42369 24.679 5.23799 25.5 7.99525 25.5Z" fill="url(#paint3_linear_1864_152657)"/>
    <path fill-rule="evenodd" clip-rule="evenodd" d="M52.1198 23.7489C50.4098 24.9244 47.9364 25.5 45.6286 25.5C40.3805 25.5 36.3652 22.1084 36.3652 16.6189C36.3652 11.7238 40.0635 7.77273 45.3821 7.77273C50.4188 7.77273 54.0819 11.4441 54.0819 17.1783V17.493C54.0819 17.9951 53.6749 18.4021 53.1728 18.4021H43.1386C42.5444 18.4021 42.1118 18.9748 42.4466 19.4656C43.1215 20.4552 44.3768 21.1643 46.2274 21.1643C47.1317 21.1643 48.4779 20.8652 49.5077 20.3273C50.0025 20.0688 50.6639 20.1503 50.9741 20.6145L52.3036 22.604C52.5557 22.9813 52.4938 23.4918 52.1198 23.7489ZM47.8811 14.7308C48.4256 14.7308 48.8585 14.2417 48.6148 13.7548C48.1752 12.8767 47.2128 12.1084 45.3821 12.1084C43.671 12.1084 42.7191 12.8437 42.2445 13.7145C41.9746 14.2096 42.4107 14.7308 42.9746 14.7308H47.8811Z" fill="url(#paint4_linear_1864_152657)"/>
    <path d="M63.1992 25.5C64.8438 25.5 66.0394 25.1715 66.7859 24.7067C67.0681 24.531 67.1623 24.181 67.0785 23.8592L66.5277 21.745C66.3726 21.1496 65.3994 20.7448 64.7842 20.7448C63.8684 20.7448 63.3048 20.0105 63.3048 19.0315V13.7517C63.3048 13.2497 63.7119 12.8427 64.2139 12.8427H65.8475C66.3496 12.8427 66.7566 12.4356 66.7566 11.9336V9.1014C66.7566 8.59932 66.3496 8.19231 65.8475 8.19231H64.2139C63.7119 8.19231 63.3048 7.78529 63.3048 7.28322V4.48601C63.3048 3.98394 62.8978 3.57692 62.3958 3.57692H58.7897C58.2877 3.57692 57.8807 3.98394 57.8807 4.48601V7.28322C57.8807 7.78529 57.4736 8.19231 56.9716 8.19231H55.972C55.4699 8.19231 55.0629 8.59932 55.0629 9.1014V11.9336C55.0629 12.4356 55.4699 12.8427 55.972 12.8427H56.9716C57.4736 12.8427 57.8807 13.2497 57.8807 13.7517V20.535C57.8807 23.7867 59.7474 25.5 63.1992 25.5Z" fill="url(#paint5_linear_1864_152657)"/>
    <path d="M84.0981 23.0006C82.921 24.2785 80.8059 25.5 77.6174 25.5C72.2988 25.5 68.354 21.8986 68.354 16.6189C68.354 11.3392 72.2988 7.77273 77.6174 7.77273C80.8137 7.77273 82.9314 8.97416 84.1068 10.2709C84.409 10.6044 84.3467 11.1105 84.016 11.4158L81.8424 13.4225C81.4348 13.7987 80.791 13.7132 80.3612 13.3625C79.7188 12.8385 78.8782 12.528 77.8639 12.528C75.6097 12.528 73.8838 14.0664 73.8838 16.6189C73.8838 19.1713 75.6097 20.7448 77.8639 20.7448C78.8806 20.7448 79.7228 20.3981 80.3657 19.8635C80.7889 19.5116 81.4271 19.4355 81.8295 19.811L84.0156 21.8508C84.346 22.1592 84.4044 22.6681 84.0981 23.0006Z" fill="url(#paint6_linear_1864_152657)"/>
    <path d="M103.125 25.0804C103.627 25.0804 104.034 24.6734 104.034 24.1713V13.0524C104.034 9.94056 102.273 7.77273 98.3984 7.77273C96.803 7.77273 95.4719 8.17728 94.4298 8.74182C93.6882 9.1436 92.5163 8.64569 92.5163 7.80222V2.66783C92.5163 2.16575 92.1093 1.75874 91.6072 1.75874H88.0012C87.4991 1.75874 87.0921 2.16575 87.0921 2.66783V24.1713C87.0921 24.6734 87.4991 25.0804 88.0012 25.0804H91.6072C92.1093 25.0804 92.5163 24.6734 92.5163 24.1713V14.4977C92.5163 14.2867 92.5874 14.0805 92.7309 13.9258C93.3789 13.2276 94.374 12.528 95.7919 12.528C97.5178 12.528 98.6097 13.1923 98.6097 15.2552V24.1713C98.6097 24.6734 99.0167 25.0804 99.5188 25.0804H103.125Z" fill="url(#paint7_linear_1864_152657)"/>
    <path d="M123.877 25.5C128.738 25.5 131.591 23.1923 131.591 19.9755C131.591 15.413 127.307 14.6926 124.386 14.2013C122.875 13.9471 121.729 13.7542 121.729 13.1224C121.729 12.458 122.574 11.9685 123.842 11.9685C125.364 11.9685 126.827 12.4538 127.897 13.1062C128.409 13.4181 129.126 13.3039 129.412 12.7781L130.539 10.7122C130.758 10.3109 130.647 9.80613 130.259 9.56414C128.525 8.48241 126.359 7.77273 123.807 7.77273C119.122 7.77273 116.516 10.3601 116.516 13.3322C116.516 17.7442 120.618 18.4173 123.54 18.8968C125.157 19.1621 126.413 19.3681 126.413 20.1154C126.413 20.8496 125.744 21.3042 124.124 21.3042C122.507 21.3042 120.435 20.5564 119.026 19.6811C118.54 19.3791 117.867 19.4903 117.578 19.9838L116.258 22.2364C116.039 22.6095 116.11 23.0891 116.461 23.3428C118.306 24.679 121.12 25.5 123.877 25.5Z" fill="url(#paint8_linear_1864_152657)"/>
    <path d="M151.363 24.1713C151.363 24.6734 150.956 25.0804 150.454 25.0804H146.848C146.346 25.0804 145.939 24.6734 145.939 24.1713V15.2552C145.939 13.1923 144.847 12.528 143.122 12.528C141.704 12.528 140.708 13.2276 140.061 13.9258C139.917 14.0805 139.846 14.2867 139.846 14.4977V24.1713C139.846 24.6734 139.439 25.0804 138.937 25.0804H135.331C134.829 25.0804 134.422 24.6734 134.422 24.1713V2.66783C134.422 2.16575 134.829 1.75874 135.331 1.75874H138.937C139.439 1.75874 139.846 2.16575 139.846 2.66783V7.80222C139.846 8.64569 141.018 9.1436 141.759 8.74182C142.801 8.17728 144.133 7.77273 145.728 7.77273C149.602 7.77273 151.363 9.94056 151.363 13.0524V24.1713Z" fill="url(#paint9_linear_1864_152657)"/>
    <path d="M163.694 0.5C164.164 0.5 164.545 0.894104 164.545 1.38026V13.6954C164.545 14.0597 164.142 14.2663 163.862 14.0455L160.11 11.0885C159.688 10.7555 159.44 10.2376 159.44 9.68813V7.10192C159.44 6.28256 159.745 5.4946 160.291 4.90128C159.744 5.43867 159.02 5.74152 158.266 5.7487L155.673 5.77341C155.137 5.77852 154.629 5.5215 154.304 5.07992L151.451 1.20686C151.238 0.91715 151.438 0.5 151.79 0.5H163.694Z" fill="url(#paint10_linear_1864_152657)"/>
  </g>
  <defs>
    <linearGradient id="paint0_linear_1864_152657" x1="164.545" y1="0.499994" x2="138.493" y2="24.8439" gradientUnits="userSpaceOnUse">
      <stop stop-color="#FA38A1"/>
      <stop offset="0.568946" stop-color="#8F00FF"/>
      <stop offset="1"/>
    </linearGradient>
    <linearGradient id="paint1_linear_1864_152657" x1="164.545" y1="0.499994" x2="138.493" y2="24.8439" gradientUnits="userSpaceOnUse">
      <stop stop-color="#FA38A1"/>
      <stop offset="0.568946" stop-color="#8F00FF"/>
      <stop offset="1"/>
    </linearGradient>
    <linearGradient id="paint2_linear_1864_152657" x1="164.545" y1="0.499994" x2="138.493" y2="24.8439" gradientUnits="userSpaceOnUse">
      <stop stop-color="#FA38A1"/>
      <stop offset="0.568946" stop-color="#8F00FF"/>
      <stop offset="1"/>
    </linearGradient>
    <linearGradient id="paint3_linear_1864_152657" x1="164.545" y1="0.499994" x2="138.493" y2="24.8439" gradientUnits="userSpaceOnUse">
      <stop stop-color="#FA38A1"/>
      <stop offset="0.568946" stop-color="#8F00FF"/>
      <stop offset="1"/>
    </linearGradient>
    <linearGradient id="paint4_linear_1864_152657" x1="164.545" y1="0.499994" x2="138.493" y2="24.8439" gradientUnits="userSpaceOnUse">
      <stop stop-color="#FA38A1"/>
      <stop offset="0.568946" stop-color="#8F00FF"/>
      <stop offset="1"/>
    </linearGradient>
    <linearGradient id="paint5_linear_1864_152657" x1="164.545" y1="0.499994" x2="138.493" y2="24.8439" gradientUnits="userSpaceOnUse">
      <stop stop-color="#FA38A1"/>
      <stop offset="0.568946" stop-color="#8F00FF"/>
      <stop offset="1"/>
    </linearGradient>
    <linearGradient id="paint6_linear_1864_152657" x1="164.545" y1="0.499994" x2="138.493" y2="24.8439" gradientUnits="userSpaceOnUse">
      <stop stop-color="#FA38A1"/>
      <stop offset="0.568946" stop-color="#8F00FF"/>
      <stop offset="1"/>
    </linearGradient>
    <linearGradient id="paint7_linear_1864_152657" x1="164.545" y1="0.499994" x2="138.493" y2="24.8439" gradientUnits="userSpaceOnUse">
      <stop stop-color="#FA38A1"/>
      <stop offset="0.568946" stop-color="#8F00FF"/>
      <stop offset="1"/>
    </linearGradient>
    <linearGradient id="paint8_linear_1864_152657" x1="164.545" y1="0.499994" x2="138.493" y2="24.8439" gradientUnits="userSpaceOnUse">
      <stop stop-color="#FA38A1"/>
      <stop offset="0.568946" stop-color="#8F00FF"/>
      <stop offset="1"/>
    </linearGradient>
    <linearGradient id="paint9_linear_1864_152657" x1="164.545" y1="0.499994" x2="138.493" y2="24.8439" gradientUnits="userSpaceOnUse">
      <stop stop-color="#FA38A1"/>
      <stop offset="0.568946" stop-color="#8F00FF"/>
      <stop offset="1"/>
    </linearGradient>
    <linearGradient id="paint10_linear_1864_152657" x1="164.545" y1="0.499994" x2="138.493" y2="24.8439" gradientUnits="userSpaceOnUse">
      <stop stop-color="#FA38A1"/>
      <stop offset="0.568946" stop-color="#8F00FF"/>
      <stop offset="1"/>
    </linearGradient>
    <clipPath id="clip0_1864_152657">
      <rect width="164.545" height="25" fill="white" transform="translate(0 0.5)"/>
    </clipPath>
  </defs>
</svg>