<svg width="91" height="57" viewBox="0 0 91 57" fill="none" xmlns="http://www.w3.org/2000/svg">
<g filter="url(#filter0_d_449_808)">
<path fill-rule="evenodd" clip-rule="evenodd" d="M10 2V15L13.6363 11.6698L13.8322 11.5083L20 11.5179L10 2Z" fill="#E668E1"/>
<path fill-rule="evenodd" clip-rule="evenodd" d="M10 2V15L13.6363 11.6698L13.8322 11.5083L20 11.5179L10 2Z" stroke="white"/>
</g>
<g filter="url(#filter1_d_449_808)">
<rect x="10" y="20" width="71" height="23" rx="2" fill="#E668E1"/>
<path d="M19.7841 36H16.9588V27.2727H19.8736C20.7287 27.2727 21.4631 27.4474 22.0767 27.7969C22.6903 28.1435 23.1605 28.642 23.4872 29.2926C23.8168 29.9403 23.9815 30.7173 23.9815 31.6236C23.9815 32.5327 23.8153 33.3139 23.483 33.9673C23.1534 34.6207 22.6761 35.1236 22.0511 35.4759C21.4261 35.8253 20.6705 36 19.7841 36ZM18.2756 34.8494H19.7116C20.3764 34.8494 20.929 34.7244 21.3693 34.4744C21.8097 34.2216 22.1392 33.8565 22.358 33.3793C22.5767 32.8991 22.6861 32.3139 22.6861 31.6236C22.6861 30.9389 22.5767 30.358 22.358 29.8807C22.142 29.4034 21.8196 29.0412 21.3906 28.794C20.9616 28.5469 20.429 28.4233 19.7926 28.4233H18.2756V34.8494ZM28.3377 36.1321C27.6928 36.1321 27.1374 35.9943 26.6715 35.7188C26.2085 35.4403 25.8505 35.0497 25.5977 34.5469C25.3477 34.0412 25.2227 33.4489 25.2227 32.7699C25.2227 32.0994 25.3477 31.5085 25.5977 30.9972C25.8505 30.4858 26.2028 30.0866 26.6545 29.7997C27.109 29.5128 27.6403 29.3693 28.2482 29.3693C28.6175 29.3693 28.9755 29.4304 29.3221 29.5526C29.6687 29.6747 29.9798 29.8665 30.2553 30.1278C30.5309 30.3892 30.7482 30.7287 30.9073 31.1463C31.0664 31.5611 31.146 32.0653 31.146 32.6591V33.1108H25.9428V32.1562H29.8974C29.8974 31.821 29.8292 31.5241 29.6928 31.2656C29.5565 31.0043 29.3647 30.7983 29.1175 30.6477C28.8732 30.4972 28.5863 30.4219 28.2567 30.4219C27.8988 30.4219 27.5863 30.5099 27.3192 30.6861C27.055 30.8594 26.8505 31.0866 26.7056 31.3679C26.5636 31.6463 26.4925 31.9489 26.4925 32.2756V33.0213C26.4925 33.4588 26.5692 33.831 26.7227 34.1378C26.8789 34.4446 27.0962 34.679 27.3746 34.8409C27.6531 35 27.9783 35.0795 28.3505 35.0795C28.592 35.0795 28.8121 35.0455 29.011 34.9773C29.2099 34.9062 29.3817 34.8011 29.5266 34.6619C29.6715 34.5227 29.7823 34.3509 29.859 34.1463L31.065 34.3636C30.9684 34.7187 30.7951 35.0298 30.5451 35.2969C30.2979 35.5611 29.9869 35.767 29.6119 35.9148C29.2397 36.0597 28.815 36.1321 28.3377 36.1321ZM37.9716 29.4545L35.598 36H34.2344L31.8565 29.4545H33.2244L34.8821 34.4915H34.9503L36.6037 29.4545H37.9716ZM41.7674 36.1321C41.1225 36.1321 40.5671 35.9943 40.1012 35.7188C39.6381 35.4403 39.2802 35.0497 39.0273 34.5469C38.7773 34.0412 38.6523 33.4489 38.6523 32.7699C38.6523 32.0994 38.7773 31.5085 39.0273 30.9972C39.2802 30.4858 39.6325 30.0866 40.0842 29.7997C40.5387 29.5128 41.07 29.3693 41.6779 29.3693C42.0472 29.3693 42.4052 29.4304 42.7518 29.5526C43.0984 29.6747 43.4094 29.8665 43.685 30.1278C43.9606 30.3892 44.1779 30.7287 44.337 31.1463C44.4961 31.5611 44.5756 32.0653 44.5756 32.6591V33.1108H39.3725V32.1562H43.3271C43.3271 31.821 43.2589 31.5241 43.1225 31.2656C42.9862 31.0043 42.7944 30.7983 42.5472 30.6477C42.3029 30.4972 42.016 30.4219 41.6864 30.4219C41.3285 30.4219 41.016 30.5099 40.7489 30.6861C40.4847 30.8594 40.2802 31.0866 40.1353 31.3679C39.9933 31.6463 39.9222 31.9489 39.9222 32.2756V33.0213C39.9222 33.4588 39.9989 33.831 40.1523 34.1378C40.3086 34.4446 40.5259 34.679 40.8043 34.8409C41.0827 35 41.408 35.0795 41.7802 35.0795C42.0217 35.0795 42.2418 35.0455 42.4407 34.9773C42.6396 34.9062 42.8114 34.8011 42.9563 34.6619C43.1012 34.5227 43.212 34.3509 43.2887 34.1463L44.4947 34.3636C44.3981 34.7187 44.2248 35.0298 43.9748 35.2969C43.7276 35.5611 43.4165 35.767 43.0415 35.9148C42.6694 36.0597 42.2447 36.1321 41.7674 36.1321ZM47.2635 27.2727V36H45.9893V27.2727H47.2635ZM51.7347 36.1321C51.1211 36.1321 50.5856 35.9915 50.1282 35.7102C49.6708 35.429 49.3157 35.0355 49.0629 34.5298C48.81 34.0241 48.6836 33.4332 48.6836 32.7571C48.6836 32.0781 48.81 31.4844 49.0629 30.9759C49.3157 30.4673 49.6708 30.0724 50.1282 29.7912C50.5856 29.5099 51.1211 29.3693 51.7347 29.3693C52.3484 29.3693 52.8839 29.5099 53.3413 29.7912C53.7987 30.0724 54.1538 30.4673 54.4066 30.9759C54.6594 31.4844 54.7859 32.0781 54.7859 32.7571C54.7859 33.4332 54.6594 34.0241 54.4066 34.5298C54.1538 35.0355 53.7987 35.429 53.3413 35.7102C52.8839 35.9915 52.3484 36.1321 51.7347 36.1321ZM51.739 35.0625C52.1367 35.0625 52.4663 34.9574 52.7276 34.7472C52.989 34.5369 53.1822 34.2571 53.3072 33.9077C53.435 33.5582 53.4989 33.1733 53.4989 32.7528C53.4989 32.3352 53.435 31.9517 53.3072 31.6023C53.1822 31.25 52.989 30.9673 52.7276 30.7543C52.4663 30.5412 52.1367 30.4347 51.739 30.4347C51.3384 30.4347 51.006 30.5412 50.7418 30.7543C50.4805 30.9673 50.2859 31.25 50.158 31.6023C50.033 31.9517 49.9705 32.3352 49.9705 32.7528C49.9705 33.1733 50.033 33.5582 50.158 33.9077C50.2859 34.2571 50.4805 34.5369 50.7418 34.7472C51.006 34.9574 51.3384 35.0625 51.739 35.0625ZM56.2081 38.4545V29.4545H57.4524V30.5156H57.5589C57.6328 30.3793 57.7393 30.2216 57.8786 30.0426C58.0178 29.8636 58.2109 29.7074 58.4581 29.5739C58.7053 29.4375 59.032 29.3693 59.4382 29.3693C59.9666 29.3693 60.4382 29.5028 60.853 29.7699C61.2678 30.0369 61.593 30.4219 61.8288 30.9247C62.0675 31.4276 62.1868 32.0327 62.1868 32.7401C62.1868 33.4474 62.0689 34.054 61.8331 34.5597C61.5973 35.0625 61.2734 35.4503 60.8615 35.723C60.4496 35.9929 59.9794 36.1278 59.451 36.1278C59.0533 36.1278 58.728 36.0611 58.4751 35.9276C58.2251 35.794 58.0291 35.6378 57.8871 35.4588C57.745 35.2798 57.6357 35.1207 57.5589 34.9815H57.4822V38.4545H56.2081ZM57.4567 32.7273C57.4567 33.1875 57.5234 33.5909 57.657 33.9375C57.7905 34.2841 57.9837 34.5554 58.2365 34.7514C58.4893 34.9446 58.799 35.0412 59.1655 35.0412C59.5462 35.0412 59.8643 34.9403 60.12 34.7386C60.3757 34.5341 60.5689 34.2571 60.6996 33.9077C60.8331 33.5582 60.8999 33.1648 60.8999 32.7273C60.8999 32.2955 60.8345 31.9077 60.7038 31.5639C60.576 31.2202 60.3828 30.9489 60.1243 30.75C59.8686 30.5511 59.549 30.4517 59.1655 30.4517C58.7962 30.4517 58.4837 30.5469 58.228 30.7372C57.9751 30.9276 57.7834 31.1932 57.6527 31.5341C57.522 31.875 57.4567 32.2727 57.4567 32.7273ZM66.4354 36.1321C65.7905 36.1321 65.2351 35.9943 64.7692 35.7188C64.3061 35.4403 63.9482 35.0497 63.6953 34.5469C63.4453 34.0412 63.3203 33.4489 63.3203 32.7699C63.3203 32.0994 63.4453 31.5085 63.6953 30.9972C63.9482 30.4858 64.3004 30.0866 64.7521 29.7997C65.2067 29.5128 65.7379 29.3693 66.3459 29.3693C66.7152 29.3693 67.0732 29.4304 67.4197 29.5526C67.7663 29.6747 68.0774 29.8665 68.353 30.1278C68.6286 30.3892 68.8459 30.7287 69.005 31.1463C69.1641 31.5611 69.2436 32.0653 69.2436 32.6591V33.1108H64.0405V32.1562H67.995C67.995 31.821 67.9268 31.5241 67.7905 31.2656C67.6541 31.0043 67.4624 30.7983 67.2152 30.6477C66.9709 30.4972 66.6839 30.4219 66.3544 30.4219C65.9964 30.4219 65.6839 30.5099 65.4169 30.6861C65.1527 30.8594 64.9482 31.0866 64.8033 31.3679C64.6612 31.6463 64.5902 31.9489 64.5902 32.2756V33.0213C64.5902 33.4588 64.6669 33.831 64.8203 34.1378C64.9766 34.4446 65.1939 34.679 65.4723 34.8409C65.7507 35 66.076 35.0795 66.4482 35.0795C66.6896 35.0795 66.9098 35.0455 67.1087 34.9773C67.3075 34.9062 67.4794 34.8011 67.6243 34.6619C67.7692 34.5227 67.88 34.3509 67.9567 34.1463L69.1626 34.3636C69.0661 34.7187 68.8928 35.0298 68.6428 35.2969C68.3956 35.5611 68.0845 35.767 67.7095 35.9148C67.3374 36.0597 66.9126 36.1321 66.4354 36.1321ZM70.6573 36V29.4545H71.8888V30.4943H71.957C72.0763 30.142 72.2866 29.8651 72.5877 29.6634C72.8917 29.4588 73.2354 29.3565 73.619 29.3565C73.6985 29.3565 73.7923 29.3594 73.9002 29.3651C74.011 29.3707 74.0977 29.3778 74.1602 29.3864V30.6051C74.109 30.5909 74.0181 30.5753 73.8874 30.5582C73.7567 30.5384 73.6261 30.5284 73.4954 30.5284C73.1942 30.5284 72.9258 30.5923 72.69 30.7202C72.457 30.8452 72.2724 31.0199 72.136 31.2443C71.9996 31.4659 71.9315 31.7187 71.9315 32.0028V36H70.6573Z" fill="white"/>
</g>
<defs>
<filter id="filter0_d_449_808" x="8.5" y="0.833984" width="13.75" height="17.3018" filterUnits="userSpaceOnUse" color-interpolation-filters="sRGB">
<feFlood flood-opacity="0" result="BackgroundImageFix"/>
<feColorMatrix in="SourceAlpha" type="matrix" values="0 0 0 0 0 0 0 0 0 0 0 0 0 0 0 0 0 0 127 0" result="hardAlpha"/>
<feOffset dy="1"/>
<feGaussianBlur stdDeviation="0.5"/>
<feComposite in2="hardAlpha" operator="out"/>
<feColorMatrix type="matrix" values="0 0 0 0 0 0 0 0 0 0 0 0 0 0 0 0 0 0 0.25 0"/>
<feBlend mode="normal" in2="BackgroundImageFix" result="effect1_dropShadow_449_808"/>
<feBlend mode="normal" in="SourceGraphic" in2="effect1_dropShadow_449_808" result="shape"/>
</filter>
<filter id="filter1_d_449_808" x="0" y="14" width="91" height="43" filterUnits="userSpaceOnUse" color-interpolation-filters="sRGB">
<feFlood flood-opacity="0" result="BackgroundImageFix"/>
<feColorMatrix in="SourceAlpha" type="matrix" values="0 0 0 0 0 0 0 0 0 0 0 0 0 0 0 0 0 0 127 0" result="hardAlpha"/>
<feOffset dy="4"/>
<feGaussianBlur stdDeviation="5"/>
<feColorMatrix type="matrix" values="0 0 0 0 0.196078 0 0 0 0 0.286275 0 0 0 0 0.392157 0 0 0 0.1 0"/>
<feBlend mode="normal" in2="BackgroundImageFix" result="effect1_dropShadow_449_808"/>
<feBlend mode="normal" in="SourceGraphic" in2="effect1_dropShadow_449_808" result="shape"/>
</filter>
</defs>
</svg>
