<svg width="91" height="57" viewBox="0 0 91 57" fill="none" xmlns="http://www.w3.org/2000/svg">
<g filter="url(#filter0_d_449_812)">
<path fill-rule="evenodd" clip-rule="evenodd" d="M10 2V15L13.6363 11.6698L13.8322 11.5083L20 11.5179L10 2Z" fill="#9D68E6"/>
<path fill-rule="evenodd" clip-rule="evenodd" d="M10 2V15L13.6363 11.6698L13.8322 11.5083L20 11.5179L10 2Z" stroke="white"/>
</g>
<g filter="url(#filter1_d_449_812)">
<rect x="10" y="20" width="71" height="23" rx="2" fill="#9D68E6"/>
<path d="M23.2841 36H20.4588V27.2727H23.3736C24.2287 27.2727 24.9631 27.4474 25.5767 27.7969C26.1903 28.1435 26.6605 28.642 26.9872 29.2926C27.3168 29.9403 27.4815 30.7173 27.4815 31.6236C27.4815 32.5327 27.3153 33.3139 26.983 33.9673C26.6534 34.6207 26.1761 35.1236 25.5511 35.4759C24.9261 35.8253 24.1705 36 23.2841 36ZM21.7756 34.8494H23.2116C23.8764 34.8494 24.429 34.7244 24.8693 34.4744C25.3097 34.2216 25.6392 33.8565 25.858 33.3793C26.0767 32.8991 26.1861 32.3139 26.1861 31.6236C26.1861 30.9389 26.0767 30.358 25.858 29.8807C25.642 29.4034 25.3196 29.0412 24.8906 28.794C24.4616 28.5469 23.929 28.4233 23.2926 28.4233H21.7756V34.8494ZM31.8377 36.1321C31.1928 36.1321 30.6374 35.9943 30.1715 35.7188C29.7085 35.4403 29.3505 35.0497 29.0977 34.5469C28.8477 34.0412 28.7227 33.4489 28.7227 32.7699C28.7227 32.0994 28.8477 31.5085 29.0977 30.9972C29.3505 30.4858 29.7028 30.0866 30.1545 29.7997C30.609 29.5128 31.1403 29.3693 31.7482 29.3693C32.1175 29.3693 32.4755 29.4304 32.8221 29.5526C33.1687 29.6747 33.4798 29.8665 33.7553 30.1278C34.0309 30.3892 34.2482 30.7287 34.4073 31.1463C34.5664 31.5611 34.646 32.0653 34.646 32.6591V33.1108H29.4428V32.1562H33.3974C33.3974 31.821 33.3292 31.5241 33.1928 31.2656C33.0565 31.0043 32.8647 30.7983 32.6175 30.6477C32.3732 30.4972 32.0863 30.4219 31.7567 30.4219C31.3988 30.4219 31.0863 30.5099 30.8192 30.6861C30.555 30.8594 30.3505 31.0866 30.2056 31.3679C30.0636 31.6463 29.9925 31.9489 29.9925 32.2756V33.0213C29.9925 33.4588 30.0692 33.831 30.2227 34.1378C30.3789 34.4446 30.5962 34.679 30.8746 34.8409C31.1531 35 31.4783 35.0795 31.8505 35.0795C32.092 35.0795 32.3121 35.0455 32.511 34.9773C32.7099 34.9062 32.8817 34.8011 33.0266 34.6619C33.1715 34.5227 33.2823 34.3509 33.359 34.1463L34.565 34.3636C34.4684 34.7187 34.2951 35.0298 34.0451 35.2969C33.7979 35.5611 33.4869 35.767 33.1119 35.9148C32.7397 36.0597 32.315 36.1321 31.8377 36.1321ZM40.9645 31.0526L39.8097 31.2571C39.7614 31.1094 39.6847 30.9687 39.5795 30.8352C39.4773 30.7017 39.3381 30.5923 39.1619 30.5071C38.9858 30.4219 38.7656 30.3793 38.5014 30.3793C38.1406 30.3793 37.8395 30.4602 37.598 30.6222C37.3565 30.7812 37.2358 30.9872 37.2358 31.2401C37.2358 31.4588 37.3168 31.6349 37.4787 31.7685C37.6406 31.902 37.902 32.0114 38.2628 32.0966L39.3026 32.3352C39.9048 32.4744 40.3537 32.6889 40.6491 32.9787C40.9446 33.2685 41.0923 33.6449 41.0923 34.108C41.0923 34.5 40.9787 34.8494 40.7514 35.1562C40.527 35.4602 40.2131 35.6989 39.8097 35.8722C39.4091 36.0455 38.9446 36.1321 38.4162 36.1321C37.6832 36.1321 37.0852 35.9759 36.6222 35.6634C36.1591 35.348 35.875 34.9006 35.7699 34.321L37.0014 34.1335C37.0781 34.4545 37.2358 34.6974 37.4744 34.8622C37.7131 35.0241 38.0241 35.1051 38.4077 35.1051C38.8253 35.1051 39.1591 35.0185 39.4091 34.8452C39.6591 34.669 39.7841 34.4545 39.7841 34.2017C39.7841 33.9972 39.7074 33.8253 39.554 33.6861C39.4034 33.5469 39.1719 33.4418 38.8594 33.3707L37.7514 33.1278C37.1406 32.9886 36.6889 32.767 36.3963 32.4631C36.1065 32.1591 35.9616 31.7741 35.9616 31.3082C35.9616 30.9219 36.0696 30.5838 36.2855 30.294C36.5014 30.0043 36.7997 29.7784 37.1804 29.6165C37.5611 29.4517 37.9972 29.3693 38.4886 29.3693C39.196 29.3693 39.7528 29.5227 40.1591 29.8295C40.5653 30.1335 40.8338 30.5412 40.9645 31.0526ZM42.4933 36V29.4545H43.7674V36H42.4933ZM43.1367 28.4446C42.9151 28.4446 42.7248 28.3707 42.5657 28.223C42.4094 28.0724 42.3313 27.8935 42.3313 27.6861C42.3313 27.4759 42.4094 27.2969 42.5657 27.1491C42.7248 26.9986 42.9151 26.9233 43.1367 26.9233C43.3583 26.9233 43.5472 26.9986 43.7035 27.1491C43.8626 27.2969 43.9421 27.4759 43.9421 27.6861C43.9421 27.8935 43.8626 28.0724 43.7035 28.223C43.5472 28.3707 43.3583 28.4446 43.1367 28.4446ZM48.2259 38.5909C47.706 38.5909 47.2585 38.5227 46.8835 38.3864C46.5114 38.25 46.2074 38.0696 45.9716 37.8452C45.7358 37.6207 45.5597 37.375 45.4432 37.108L46.5384 36.6562C46.6151 36.7812 46.7173 36.9134 46.8452 37.0526C46.9759 37.1946 47.152 37.3153 47.3736 37.4148C47.598 37.5142 47.8864 37.5639 48.2386 37.5639C48.7216 37.5639 49.1207 37.446 49.4361 37.2102C49.7514 36.9773 49.9091 36.6051 49.9091 36.0938V34.8068H49.8281C49.7514 34.946 49.6406 35.1009 49.4957 35.2713C49.3537 35.4418 49.1577 35.5895 48.9077 35.7145C48.6577 35.8395 48.3324 35.902 47.9318 35.902C47.4148 35.902 46.9489 35.7812 46.5341 35.5398C46.1222 35.2955 45.7955 34.9361 45.554 34.4616C45.3153 33.9844 45.196 33.3977 45.196 32.7017C45.196 32.0057 45.3139 31.4091 45.5497 30.9119C45.7884 30.4148 46.1151 30.0341 46.5298 29.7699C46.9446 29.5028 47.4148 29.3693 47.9403 29.3693C48.3466 29.3693 48.6747 29.4375 48.9247 29.5739C49.1747 29.7074 49.3693 29.8636 49.5085 30.0426C49.6506 30.2216 49.7599 30.3793 49.8366 30.5156H49.9304V29.4545H51.179V36.1449C51.179 36.7074 51.0483 37.169 50.7869 37.5298C50.5256 37.8906 50.1719 38.1577 49.7259 38.331C49.2827 38.5043 48.7827 38.5909 48.2259 38.5909ZM48.2131 34.8452C48.5795 34.8452 48.8892 34.7599 49.142 34.5895C49.3977 34.4162 49.5909 34.169 49.7216 33.848C49.8551 33.5241 49.9219 33.1364 49.9219 32.6847C49.9219 32.2443 49.8565 31.8565 49.7259 31.5213C49.5952 31.1861 49.4034 30.9247 49.1506 30.7372C48.8977 30.5469 48.5852 30.4517 48.2131 30.4517C47.8295 30.4517 47.5099 30.5511 47.2543 30.75C46.9986 30.946 46.8054 31.2131 46.6747 31.5511C46.5469 31.8892 46.483 32.267 46.483 32.6847C46.483 33.1136 46.5483 33.4901 46.679 33.8139C46.8097 34.1378 47.0028 34.3906 47.2585 34.5724C47.517 34.7543 47.8352 34.8452 48.2131 34.8452ZM54.1619 32.1136V36H52.8878V29.4545H54.1108V30.5199H54.1918C54.3423 30.1733 54.5781 29.8949 54.8991 29.6847C55.223 29.4744 55.6307 29.3693 56.1222 29.3693C56.5682 29.3693 56.9588 29.4631 57.294 29.6506C57.6293 29.8352 57.8892 30.1108 58.0739 30.4773C58.2585 30.8437 58.3509 31.2969 58.3509 31.8366V36H57.0767V31.9901C57.0767 31.5156 56.9531 31.1449 56.706 30.8778C56.4588 30.608 56.1193 30.473 55.6875 30.473C55.392 30.473 55.1293 30.5369 54.8991 30.6648C54.6719 30.7926 54.4915 30.9801 54.358 31.2273C54.2273 31.4716 54.1619 31.767 54.1619 32.1136ZM62.8807 36.1321C62.2358 36.1321 61.6804 35.9943 61.2145 35.7188C60.7514 35.4403 60.3935 35.0497 60.1406 34.5469C59.8906 34.0412 59.7656 33.4489 59.7656 32.7699C59.7656 32.0994 59.8906 31.5085 60.1406 30.9972C60.3935 30.4858 60.7457 30.0866 61.1974 29.7997C61.652 29.5128 62.1832 29.3693 62.7912 29.3693C63.1605 29.3693 63.5185 29.4304 63.8651 29.5526C64.2116 29.6747 64.5227 29.8665 64.7983 30.1278C65.0739 30.3892 65.2912 30.7287 65.4503 31.1463C65.6094 31.5611 65.6889 32.0653 65.6889 32.6591V33.1108H60.4858V32.1562H64.4403C64.4403 31.821 64.3722 31.5241 64.2358 31.2656C64.0994 31.0043 63.9077 30.7983 63.6605 30.6477C63.4162 30.4972 63.1293 30.4219 62.7997 30.4219C62.4418 30.4219 62.1293 30.5099 61.8622 30.6861C61.598 30.8594 61.3935 31.0866 61.2486 31.3679C61.1065 31.6463 61.0355 31.9489 61.0355 32.2756V33.0213C61.0355 33.4588 61.1122 33.831 61.2656 34.1378C61.4219 34.4446 61.6392 34.679 61.9176 34.8409C62.196 35 62.5213 35.0795 62.8935 35.0795C63.1349 35.0795 63.3551 35.0455 63.554 34.9773C63.7528 34.9062 63.9247 34.8011 64.0696 34.6619C64.2145 34.5227 64.3253 34.3509 64.402 34.1463L65.608 34.3636C65.5114 34.7187 65.3381 35.0298 65.0881 35.2969C64.8409 35.5611 64.5298 35.767 64.1548 35.9148C63.7827 36.0597 63.358 36.1321 62.8807 36.1321ZM67.1026 36V29.4545H68.3342V30.4943H68.4023C68.5217 30.142 68.7319 29.8651 69.033 29.6634C69.337 29.4588 69.6808 29.3565 70.0643 29.3565C70.1438 29.3565 70.2376 29.3594 70.3455 29.3651C70.4563 29.3707 70.543 29.3778 70.6055 29.3864V30.6051C70.5543 30.5909 70.4634 30.5753 70.3327 30.5582C70.2021 30.5384 70.0714 30.5284 69.9407 30.5284C69.6396 30.5284 69.3711 30.5923 69.1353 30.7202C68.9023 30.8452 68.7177 31.0199 68.5813 31.2443C68.445 31.4659 68.3768 31.7187 68.3768 32.0028V36H67.1026Z" fill="white"/>
</g>
<defs>
<filter id="filter0_d_449_812" x="8.5" y="0.833984" width="13.75" height="17.3018" filterUnits="userSpaceOnUse" color-interpolation-filters="sRGB">
<feFlood flood-opacity="0" result="BackgroundImageFix"/>
<feColorMatrix in="SourceAlpha" type="matrix" values="0 0 0 0 0 0 0 0 0 0 0 0 0 0 0 0 0 0 127 0" result="hardAlpha"/>
<feOffset dy="1"/>
<feGaussianBlur stdDeviation="0.5"/>
<feComposite in2="hardAlpha" operator="out"/>
<feColorMatrix type="matrix" values="0 0 0 0 0 0 0 0 0 0 0 0 0 0 0 0 0 0 0.25 0"/>
<feBlend mode="normal" in2="BackgroundImageFix" result="effect1_dropShadow_449_812"/>
<feBlend mode="normal" in="SourceGraphic" in2="effect1_dropShadow_449_812" result="shape"/>
</filter>
<filter id="filter1_d_449_812" x="0" y="14" width="91" height="43" filterUnits="userSpaceOnUse" color-interpolation-filters="sRGB">
<feFlood flood-opacity="0" result="BackgroundImageFix"/>
<feColorMatrix in="SourceAlpha" type="matrix" values="0 0 0 0 0 0 0 0 0 0 0 0 0 0 0 0 0 0 127 0" result="hardAlpha"/>
<feOffset dy="4"/>
<feGaussianBlur stdDeviation="5"/>
<feColorMatrix type="matrix" values="0 0 0 0 0.196078 0 0 0 0 0.286275 0 0 0 0 0.392157 0 0 0 0.1 0"/>
<feBlend mode="normal" in2="BackgroundImageFix" result="effect1_dropShadow_449_812"/>
<feBlend mode="normal" in="SourceGraphic" in2="effect1_dropShadow_449_812" result="shape"/>
</filter>
</defs>
</svg>
