<svg width="48px" height="48px" viewBox="0 0 48 48" fill="none" xmlns="http://www.w3.org/2000/svg"><!--! OpenStrokeicons.com Free 1.0 by @openstroke - https://openstrokeicons.com License - https://openstrokeicons.com/pricing (Commercial License) Copyright 2023 Openstrokeicons.com -->
<path fill-rule="evenodd" clip-rule="evenodd" d="M5.5 13.5H4V16.5H5.5H42.5008H44.0008V13.5H42.5008H5.5ZM4 22.5H5.5V24V25.5H4V22.5ZM5.5 24C5.5 22.5 5.50009 22.5 5.50028 22.5H5.50113H5.50253H5.5045H5.50702H5.5101H5.51373H5.51791H5.52265H5.52793H5.53377H5.54015H5.54707H5.55454H5.56254H5.57109H5.58017H5.58979H5.59995H5.61064H5.62186H5.6336H5.64588H5.65868H5.67201H5.68586H5.70023H5.71512H5.73053H5.74645H5.76289H5.77985H5.79731H5.81528H5.83377H5.85275H5.87225H5.89224H5.91274H5.93374H5.95523H5.97722H5.99971H6.02269H6.04616H6.07012H6.09457H6.11951H6.14493H6.17083H6.19722H6.22408H6.25142H6.27924H6.30754H6.33631H6.36555H6.39526H6.42544H6.45608H6.48719H6.51877H6.5508H6.5833H6.61626H6.64967H6.68353H6.71785H6.75262H6.78785H6.82352H6.85964H6.8962H6.9332H6.97065H7.00854H7.04687H7.08563H7.12483H7.16447H7.20453H7.24503H7.28595H7.3273H7.36908H7.41128H7.45391H7.49695H7.54041H7.58429H7.62859H7.6733H7.71842H7.76395H7.80989H7.85624H7.90299H7.95015H7.99771H8.04567H8.09403H8.14279H8.19194H8.24149H8.29142H8.34175H8.39247H8.44358H8.49507H8.54695H8.59921H8.65185H8.70487H8.75826H8.81204H8.86618H8.9207H8.97559H9.03085H9.08648H9.14247H9.19883H9.25555H9.31263H9.37007H9.42787H9.48602H9.54453H9.60339H9.66261H9.72217H9.78208H9.84233H9.90293H9.96388H10.0252H10.0868H10.1487H10.211H10.2737H10.3366H10.3999H10.4636H10.5275H10.5918H10.6564H10.7213H10.7866H10.8522H10.918H10.9843H11.0508H11.1176H11.1847H11.2522H11.32H11.388H11.4564H11.5251H11.5941H11.6633H11.7329H11.8028H11.8729H11.9434H12.0142H12.0852H12.1565H12.2282H12.3001H12.3722H12.4447H12.5175H12.5905H12.6638H12.7374H12.8112H12.8853H12.9597H13.0344H13.1093H13.1845H13.26H13.3357H13.4117H13.4879H13.5644H13.6412H13.7182H13.7954H13.8729H13.9507H14.0287H14.1069H14.1854H14.2642H14.3431H14.4223H14.5018H14.5815H14.6614H14.7416H14.8219H14.9025H14.9834H15.0645H15.1457H15.2272H15.309H15.3909H15.4731H15.5555H15.6381H15.7209H15.8039H15.8871H15.9706H16.0542H16.1381H16.2221H16.3064H16.3908H16.4754H16.5603H16.6453H16.7306H16.816H16.9016H16.9874H17.0734H17.1595H17.2459H17.3324H17.4191H17.506H17.5931H17.6803H17.7677H17.8553H17.943H18.031H18.1191H18.2073H18.2957H18.3843H18.473H18.5619H18.651H18.7402H18.8295H18.919H19.0087H19.0985H19.1884H19.2785H19.3688H19.4591H19.5496H19.6403H19.7311H19.822H19.9131H20.0043H20.0956H20.187H20.2786H20.3703H20.4621H20.5541H20.6462H20.7383H20.8306H20.923H21.0156H21.1082H21.201H21.2938H21.3868H21.4799H21.573H21.6663H21.7597H21.8532H21.9467H22.0404H22.1341H22.228H22.3219H22.416H22.5101H22.6043H22.6986H22.7929H22.8874H22.9819H23.0765H23.1712H23.2659H23.3608H23.4556H23.5506H23.6456H23.7407H23.8359H23.9311H24.0264H24.1217H24.2171H24.3126H24.4081H24.5036H24.5992H24.6949H24.7906H24.8864H24.9821H25.078H25.1739H25.2698H25.3657H25.4617H25.5577H25.6538H25.7499H25.846H25.9421H26.0383H26.1345H26.2307H26.3269H26.4232H26.5195H26.6157H26.712H26.8084H26.9047H27.001H27.0974H27.1937H27.29H27.3864H27.4828H27.5791H27.6755H27.7718H27.8681H27.9645H28.0608H28.1571H28.2534H28.3497H28.446H28.5422H28.6385H28.7347H28.8309H28.9271H29.0232H29.1193H29.2154H29.3115H29.4075H29.5035H29.5994H29.6954H29.7912H29.8871H29.9829H30.0786H30.1743H30.27H30.3656H30.4612H30.5567H30.6522H30.7476H30.8429H30.9382H31.0334H31.1286H31.2237H31.3187H31.4137H31.5086H31.6034H31.6982H31.7929H31.8875H31.982H32.0765H32.1709H32.2651H32.3594H32.4535H32.5475H32.6415H32.7353H32.8291H32.9228H33.0164H33.1098H33.2032H33.2965H33.3897H33.4828H33.5758H33.6686H33.7614H33.8541H33.9466H34.039H34.1313H34.2235H34.3156H34.4076H34.4994H34.5911H34.6827H34.7742H34.8655H34.9567H35.0478H35.1388H35.2296H35.3202H35.4108H35.5012H35.5914H35.6815H35.7715H35.8613H35.951H36.0405H36.1299H36.2191H36.3082H36.3971H36.4859H36.5745H36.6629H36.7512H36.8393H36.9272H37.015H37.1026H37.19H37.2773H37.3644H37.4513H37.538H37.6245H37.7109H37.7971H37.8831H37.9689H38.0546H38.14H38.2253H38.3103H38.3952H38.4799H38.5643H38.6486H38.7327H38.8166H38.9002H38.9837H39.067H39.15H39.2328H39.3155H39.3979H39.4801H39.562H39.6438H39.7253H39.8067H39.8877H39.9686H40.0493H40.1297H40.2099H40.2898H40.3695H40.449H40.5282H40.6072H40.686H40.7645H40.8428H40.9208H40.9986H41.0762H41.1535H41.2305H41.3073H41.3838H41.4601H41.5361H41.6118H41.6873H41.7626H41.8375H41.9122H41.9867H42.0608H42.1347H42.2083H42.2817H42.3547H42.4275H42.5H44V25.5H42.5H42.4275H42.3547H42.2817H42.2083H42.1347H42.0608H41.9867H41.9122H41.8375H41.7626H41.6873H41.6118H41.5361H41.4601H41.3838H41.3073H41.2305H41.1535H41.0762H40.9986H40.9208H40.8428H40.7645H40.686H40.6072H40.5282H40.449H40.3695H40.2898H40.2099H40.1297H40.0493H39.9686H39.8877H39.8067H39.7253H39.6438H39.562H39.4801H39.3979H39.3155H39.2328H39.15H39.067H38.9837H38.9002H38.8166H38.7327H38.6486H38.5643H38.4799H38.3952H38.3103H38.2253H38.14H38.0546H37.9689H37.8831H37.7971H37.7109H37.6245H37.538H37.4513H37.3644H37.2773H37.19H37.1026H37.015H36.9272H36.8393H36.7512H36.6629H36.5745H36.4859H36.3971H36.3082H36.2191H36.1299H36.0405H35.951H35.8613H35.7715H35.6815H35.5914H35.5012H35.4108H35.3202H35.2296H35.1388H35.0478H34.9567H34.8655H34.7742H34.6827H34.5911H34.4994H34.4076H34.3156H34.2235H34.1313H34.039H33.9466H33.8541H33.7614H33.6686H33.5758H33.4828H33.3897H33.2965H33.2032H33.1098H33.0164H32.9228H32.8291H32.7353H32.6415H32.5475H32.4535H32.3594H32.2651H32.1709H32.0765H31.982H31.8875H31.7929H31.6982H31.6034H31.5086H31.4137H31.3187H31.2237H31.1286H31.0334H30.9382H30.8429H30.7476H30.6522H30.5567H30.4612H30.3656H30.27H30.1743H30.0786H29.9829H29.8871H29.7912H29.6954H29.5994H29.5035H29.4075H29.3115H29.2154H29.1193H29.0232H28.9271H28.8309H28.7347H28.6385H28.5422H28.446H28.3497H28.2534H28.1571H28.0608H27.9645H27.8681H27.7718H27.6755H27.5791H27.4828H27.3864H27.29H27.1937H27.0974H27.001H26.9047H26.8084H26.712H26.6157H26.5195H26.4232H26.3269H26.2307H26.1345H26.0383H25.9421H25.846H25.7499H25.6538H25.5577H25.4617H25.3657H25.2698H25.1739H25.078H24.9821H24.8864H24.7906H24.6949H24.5992H24.5036H24.4081H24.3126H24.2171H24.1217H24.0264H23.9311H23.8359H23.7407H23.6456H23.5506H23.4556H23.3608H23.2659H23.1712H23.0765H22.9819H22.8874H22.7929H22.6986H22.6043H22.5101H22.416H22.3219H22.228H22.1341H22.0404H21.9467H21.8532H21.7597H21.6663H21.573H21.4799H21.3868H21.2938H21.201H21.1082H21.0156H20.923H20.8306H20.7383H20.6462H20.5541H20.4621H20.3703H20.2786H20.187H20.0956H20.0043H19.9131H19.822H19.7311H19.6403H19.5496H19.4591H19.3688H19.2785H19.1884H19.0985H19.0087H18.919H18.8295H18.7402H18.651H18.5619H18.473H18.3843H18.2957H18.2073H18.1191H18.031H17.943H17.8553H17.7677H17.6803H17.5931H17.506H17.4191H17.3324H17.2459H17.1595H17.0734H16.9874H16.9016H16.816H16.7306H16.6453H16.5603H16.4754H16.3908H16.3064H16.2221H16.1381H16.0542H15.9706H15.8871H15.8039H15.7209H15.6381H15.5555H15.4731H15.3909H15.309H15.2272H15.1457H15.0645H14.9834H14.9025H14.8219H14.7416H14.6614H14.5815H14.5018H14.4223H14.3431H14.2642H14.1854H14.1069H14.0287H13.9507H13.8729H13.7954H13.7182H13.6412H13.5644H13.4879H13.4117H13.3357H13.26H13.1845H13.1093H13.0344H12.9597H12.8853H12.8112H12.7374H12.6638H12.5905H12.5175H12.4447H12.3722H12.3001H12.2282H12.1565H12.0852H12.0142H11.9434H11.8729H11.8028H11.7329H11.6633H11.5941H11.5251H11.4564H11.388H11.32H11.2522H11.1847H11.1176H11.0508H10.9843H10.918H10.8522H10.7866H10.7213H10.6564H10.5918H10.5275H10.4636H10.3999H10.3366H10.2737H10.211H10.1487H10.0868H10.0252H9.96388H9.90293H9.84233H9.78208H9.72217H9.66261H9.60339H9.54453H9.48602H9.42787H9.37007H9.31263H9.25555H9.19883H9.14247H9.08648H9.03085H8.97559H8.9207H8.86618H8.81204H8.75826H8.70487H8.65185H8.59921H8.54695H8.49507H8.44358H8.39247H8.34175H8.29142H8.24149H8.19194H8.14279H8.09403H8.04567H7.99771H7.95015H7.90299H7.85624H7.80989H7.76395H7.71842H7.6733H7.62859H7.58429H7.54041H7.49695H7.45391H7.41128H7.36908H7.3273H7.28595H7.24503H7.20453H7.16447H7.12483H7.08563H7.04687H7.00854H6.97065H6.9332H6.8962H6.85964H6.82352H6.78785H6.75262H6.71785H6.68353H6.64967H6.61626H6.5833H6.5508H6.51877H6.48719H6.45608H6.42544H6.39526H6.36555H6.33631H6.30754H6.27924H6.25142H6.22408H6.19722H6.17083H6.14493H6.11951H6.09457H6.07012H6.04616H6.02269H5.99971H5.97722H5.95523H5.93374H5.91274H5.89224H5.87225H5.85275H5.83377H5.81528H5.79731H5.77985H5.76289H5.74645H5.73053H5.71512H5.70023H5.68586H5.67201H5.65868H5.64588H5.6336H5.62186H5.61064H5.59995H5.58979H5.58017H5.57109H5.56254H5.55454H5.54707H5.54015H5.53377H5.52793H5.52265H5.51791H5.51373H5.5101H5.50702H5.5045H5.50253H5.50113H5.50028C5.50009 25.5 5.5 25.5 5.5 24ZM4 31.5H5.5H42.5008H44.0008V34.5H42.5008H5.5H4V31.5Z" fill="#1E3050" stroke-width="2"/>
</svg>
