<svg width="136" height="50" viewBox="0 0 136 50" fill="none" xmlns="http://www.w3.org/2000/svg">
<path fill-rule="evenodd" clip-rule="evenodd" d="M17.6784 9.47226C17.8223 9.25033 18.1471 9.25029 18.2911 9.47219L32.968 32.0885C33.1256 32.3315 32.9513 32.6525 32.6616 32.6525H30.9243C30.7388 32.6525 30.5658 32.5586 30.4648 32.403L18.1386 13.4124C18.0666 13.3015 17.9042 13.3015 17.8323 13.4125L16.7617 15.063C16.6832 15.1839 16.6833 15.3397 16.7617 15.4605L30.2575 36.2623C30.4152 36.5053 30.2408 36.8263 29.9512 36.8263H22.7974C22.6122 36.8263 22.4395 36.7326 22.3384 36.5774L12.6964 21.7725C12.6242 21.6617 12.4619 21.6619 12.3901 21.7729L11.332 23.4082C11.2537 23.5292 11.2539 23.6848 11.3324 23.8056L22.1373 40.4358C22.2951 40.6788 22.1208 41 21.831 41H14.6235C14.4368 41 14.263 40.9049 14.1623 40.7478L7.32811 30.0843C7.25627 29.9722 7.09251 29.9722 7.02065 30.0843L5.5584 32.3648C5.44551 32.5409 5.44272 32.7658 5.5512 32.9447L6.30356 34.1847C6.45123 34.4281 6.27601 34.7394 5.99133 34.7394H2.00198C1.71323 34.7394 1.53869 34.4201 1.69454 34.177L6.86214 26.1177C7.00582 25.8936 7.33325 25.8936 7.47697 26.1176L15.5767 38.7451C15.6439 38.8498 15.7597 38.9131 15.8841 38.9131H18.0909C18.2358 38.9131 18.3229 38.7526 18.2441 38.6311L8.6857 23.9096C8.56807 23.7284 8.56789 23.495 8.68523 23.3137L12.2303 17.8347C12.3739 17.6127 12.6986 17.6122 12.8429 17.8338L23.7995 34.6564C23.8332 34.7082 23.8907 34.7394 23.9525 34.7394H26.2231C26.3679 34.7394 26.4551 34.5789 26.3763 34.4574L14.1164 15.5602C13.9987 15.3788 13.9987 15.1453 14.1164 14.9639L17.6784 9.47226Z" fill="black"/>
<path fill-rule="evenodd" clip-rule="evenodd" d="M51.2328 28.0306H45.8302L43.7231 32.5852H41.334L44.4411 25.8692H50.2374L48.2787 21.6175H46.4158L46.571 21.2796C47.1566 20.005 47.7353 18.7256 48.3301 17.4544L48.5424 17L55.6663 32.5852H53.332L51.2328 28.0306ZM59.1968 25.2843C59.1867 26.0227 59.323 26.7556 59.5975 27.4389C59.872 28.1222 60.2791 28.7417 60.7943 29.2603C61.3094 29.7788 61.922 30.1856 62.5951 30.4563C63.2683 30.7269 63.9881 30.8558 64.7113 30.8351C65.6154 30.8589 66.5113 30.6552 67.3201 30.2421C68.1289 29.829 68.8257 29.2192 69.3491 28.4664L69.4906 28.2788L71.1846 29.6059L71.0522 29.7923C70.1177 31.1171 68.7957 32.1052 67.2763 32.6146C65.7569 33.1241 64.1184 33.1285 62.5963 32.6274C61.0743 32.1262 59.7471 31.1453 58.8057 29.8257C57.8643 28.506 57.3572 26.9156 57.3572 25.2831C57.3572 23.6507 57.8643 22.0603 58.8057 20.7406C59.7471 19.421 61.0743 18.44 62.5963 17.9389C64.1184 17.4377 65.7569 17.4422 67.2763 17.9516C68.7957 18.4611 70.1177 19.4492 71.0522 20.774L71.1846 20.9616L69.4906 22.2887L69.3491 22.1011C68.8257 21.3483 68.1289 20.7384 67.3201 20.3253C66.5113 19.9122 65.6154 19.7086 64.7113 19.7323C63.988 19.7116 63.2681 19.8405 62.5948 20.1113C61.9216 20.382 61.309 20.7889 60.7938 21.3076C60.2787 21.8262 59.8716 22.4459 59.5972 23.1293C59.3227 23.8128 59.1866 24.5458 59.1968 25.2843ZM75.997 25.2843C75.9869 26.0227 76.1232 26.7556 76.3977 27.4389C76.6722 28.1222 77.0793 28.7417 77.5944 29.2603C78.1096 29.7788 78.7221 30.1856 79.3953 30.4563C80.0684 30.7269 80.7883 30.8558 81.5115 30.8351C82.4158 30.8622 83.3127 30.6603 84.1219 30.2473C84.9312 29.8344 85.6277 29.2233 86.1492 28.4687L86.2908 28.2788L87.9847 29.6059L87.8523 29.7923C86.9178 31.1171 85.5958 32.1052 84.0764 32.6146C82.557 33.1241 80.9185 33.1285 79.3965 32.6274C77.8744 32.1262 76.5473 31.1453 75.6059 29.8257C74.6645 28.506 74.1573 26.9156 74.1573 25.2831C74.1573 23.6507 74.6645 22.0603 75.6059 20.7406C76.5473 19.421 77.8744 18.44 79.3965 17.9389C80.9185 17.4377 82.557 17.4422 84.0764 17.9516C85.5958 18.4611 86.9178 19.4492 87.8523 20.774L87.9847 20.9616L86.2908 22.2887L86.1492 22.0999C85.6278 21.3451 84.9314 20.7338 84.1221 20.3206C83.3128 19.9075 82.4159 19.7054 81.5115 19.7323C80.7882 19.7116 80.0682 19.8405 79.395 20.1113C78.7218 20.382 78.1092 20.7889 77.594 21.3076C77.0788 21.8262 76.6718 22.4459 76.3973 23.1293C76.1229 23.8128 75.9867 24.5458 75.997 25.2843ZM116.151 26.6033L119.641 32.5759H117.157L113.833 26.8992H111.122V32.5759H108.97V24.7332H114.376C114.695 24.7683 115.019 24.7343 115.324 24.6334C115.63 24.5326 115.912 24.3671 116.151 24.1478C116.391 23.9285 116.582 23.6602 116.713 23.3605C116.844 23.0608 116.911 22.7363 116.911 22.4081C116.911 22.0799 116.844 21.7554 116.713 21.4557C116.582 21.156 116.391 20.8877 116.151 20.6684C115.912 20.4491 115.63 20.2836 115.324 20.1828C115.019 20.0819 114.695 20.0479 114.376 20.083H108.97V17.917H114.401C115.001 17.8824 115.601 17.9733 116.166 18.184C116.73 18.3947 117.247 18.7209 117.684 19.1425C118.12 19.5642 118.468 20.0723 118.705 20.636C118.943 21.1996 119.065 21.8068 119.065 22.4203C119.077 23.3431 118.801 24.2459 118.277 24.998C117.753 25.7501 117.008 26.3123 116.151 26.6033ZM97.968 17.5698C99.4568 17.5558 100.916 17.9928 102.162 18.8256C103.407 19.6584 104.382 20.8495 104.964 22.2483C105.546 23.6471 105.709 25.1907 105.431 26.6837C105.154 28.1768 104.448 29.5522 103.405 30.6361C102.361 31.7199 101.026 32.4635 99.5684 32.7726C98.1107 33.0818 96.5959 32.9427 95.2157 32.3729C93.8355 31.8031 92.6519 30.8282 91.8146 29.5716C90.9773 28.315 90.524 26.8331 90.512 25.3134C90.4906 24.3017 90.6679 23.2959 91.0334 22.3553C91.3989 21.4147 91.9452 20.5583 92.6401 19.8366C93.335 19.1149 94.1645 18.5425 95.0795 18.1532C95.9946 17.7639 96.9767 17.5655 97.968 17.5698ZM122.434 32.5852V17.917H125.649C126.387 17.917 127.133 17.9321 127.863 17.9939C128.658 18.0407 129.443 18.1898 130.201 18.4378C131.433 18.9885 132.496 19.8688 133.278 20.9857C134.059 22.1026 134.531 23.4145 134.642 24.7825C134.753 26.1504 134.5 27.5236 133.909 28.7567C133.318 29.9898 132.411 31.0368 131.285 31.7871C129.987 32.3768 128.572 32.65 127.152 32.5852H122.434ZM98.0285 19.7323C97.3188 19.7366 96.6169 19.8849 95.9638 20.1686C95.3107 20.4522 94.7193 20.8655 94.2241 21.3845C93.7288 21.9035 93.3395 22.5178 93.0789 23.1916C92.8183 23.8655 92.6915 24.5856 92.7058 25.3099C92.7009 26.0333 92.8367 26.7505 93.1054 27.4199C93.3742 28.0892 93.7705 28.6974 94.2714 29.2092C94.7723 29.7209 95.3678 30.126 96.0233 30.4009C96.6789 30.6758 97.3814 30.8151 98.09 30.8106C98.7987 30.8061 99.4995 30.658 100.152 30.3748C100.804 30.0917 101.394 29.6791 101.889 29.1611C102.384 28.643 102.773 28.0299 103.033 27.3572C103.294 26.6845 103.421 25.9656 103.407 25.2424C103.415 24.5182 103.282 23.7996 103.015 23.1286C102.747 22.4577 102.352 21.8479 101.851 21.3349C101.35 20.8218 100.754 20.4158 100.098 20.1407C99.4415 19.8655 98.738 19.7267 98.0285 19.7323ZM124.533 30.4623H125.701C126.483 30.4623 127.265 30.446 128.043 30.3761C128.527 30.3463 129.005 30.2619 129.47 30.1244C130.411 29.7982 131.218 29.1603 131.762 28.3122C132.306 27.464 132.557 26.4544 132.475 25.4439C132.556 24.3532 132.273 23.2667 131.672 22.3611C131.071 21.4556 130.187 20.7845 129.164 20.457C128.849 20.3629 128.528 20.2924 128.202 20.2461C127.84 20.1914 127.477 20.1564 127.113 20.1296C126.44 20.0854 125.765 20.0772 125.092 20.0772H124.531L124.533 30.4623Z" fill="black"/>
</svg>
