<svg width="98" height="50" viewBox="0 0 98 50" fill="none" xmlns="http://www.w3.org/2000/svg">
<path d="M19.2016 7.00857C19.1497 7.01403 18.9531 7.02766 18.7702 7.0413C12.2939 7.53497 6.55476 11.5607 3.81625 17.5283C2.98897 19.3312 2.4975 21.1913 2.27362 23.4033C2.21082 23.9979 2.21355 25.9807 2.27362 26.5971C2.46201 28.4954 2.82787 30.0392 3.48041 31.6811C5.40529 36.5305 9.45708 40.3844 14.388 42.0618C15.7914 42.5363 17.1238 42.8145 18.7702 42.9673C19.2971 43.0164 21.2957 43.0082 21.82 42.9564C23.7339 42.7627 25.2765 42.3945 26.9011 41.7508C31.4634 39.9371 35.1548 36.2441 36.9705 31.6811C37.6121 30.0692 37.9916 28.4736 38.1745 26.6244C38.2237 26.1035 38.2455 24.4752 38.21 23.8942C38.0298 21.0795 37.2381 18.4366 35.8456 16.0146L35.6135 15.6082L36.5473 14.67C37.5329 13.6772 37.5657 13.639 37.6312 13.3553C37.7595 12.8044 37.4182 12.2344 36.8667 12.0844C36.8094 12.0707 36.0231 11.9943 35.122 11.918C34.2183 11.8416 33.4729 11.7707 33.462 11.7652C33.4538 11.7543 33.3856 11.0097 33.3091 10.107C33.2327 9.20144 33.159 8.41594 33.1426 8.35866C33.0716 8.09955 32.8641 7.8268 32.6429 7.7068C32.4136 7.58406 32.116 7.5377 31.873 7.5977C31.589 7.66316 31.5508 7.69316 30.5597 8.6805L29.6205 9.61328L29.2273 9.38691C28.6676 9.0678 28.2034 8.82778 27.7093 8.6014C25.8308 7.75044 23.9851 7.26495 21.8473 7.04948C21.4841 7.01675 19.4746 6.98402 19.2016 7.00857ZM20.8561 9.13326C23.3626 9.24781 25.5987 9.86421 27.7993 11.0452L28.0505 11.1788L27.4034 11.8307C26.4833 12.7526 26.5188 12.6517 26.628 13.9418C26.669 14.4218 26.7018 14.8227 26.7018 14.8336C26.7018 14.8445 26.6608 14.8282 26.6117 14.7982C24.8315 13.7236 23.1005 13.1535 21.1456 13.0008C20.3811 12.9408 19.2289 12.9817 18.4344 13.0962C16.2938 13.4072 14.2051 14.3481 12.5232 15.75C10.0086 17.8502 8.47144 20.8204 8.21479 24.0797C8.18476 24.4779 8.18476 25.5361 8.21479 25.9343C8.43048 28.6836 9.55811 31.231 11.4448 33.2439C13.3341 35.2622 15.8651 36.566 18.5982 36.9423C19.6138 37.0787 20.9927 37.0705 22.0193 36.9151C25.353 36.4159 28.3672 34.4931 30.2402 31.6702C30.9474 30.6065 31.4471 29.5291 31.7883 28.3372C32.1078 27.2244 32.247 26.218 32.247 25.0152C32.247 24.3388 32.2252 23.976 32.1487 23.3978C31.9412 21.8214 31.3788 20.2013 30.557 18.8348C30.4587 18.6712 30.3795 18.532 30.385 18.5266C30.3904 18.5239 30.789 18.5539 31.2696 18.5948C32.2498 18.6793 32.3016 18.6766 32.5801 18.5457C32.7194 18.483 32.8177 18.3957 33.3883 17.8229L34.0409 17.1738L34.1719 17.422C34.3603 17.7738 34.718 18.513 34.8463 18.8157C35.9739 21.4859 36.3507 24.4588 35.9275 27.3472C35.3186 31.4792 33.0934 35.1968 29.7133 37.736C25.8035 40.6735 20.7251 41.6226 15.9607 40.3135C12.8864 39.468 10.1042 37.6651 8.01275 35.164C5.01486 31.5774 3.7671 26.8808 4.58074 22.2223C5.2169 18.5648 7.16908 15.2127 10.0632 12.7989C12.7471 10.5597 16.0453 9.28326 19.5347 9.13598C20.179 9.10598 20.2801 9.10598 20.8561 9.13326ZM31.3133 11.9289C31.3515 12.4198 31.3979 12.8835 31.4116 12.9626C31.4825 13.3444 31.7474 13.6554 32.1187 13.7781C32.2006 13.8054 32.5528 13.8463 33.1999 13.9008C33.7269 13.9472 34.1664 13.9854 34.1801 13.9908C34.191 13.9936 33.634 14.5582 32.9514 15.2427L31.7064 16.4892L30.344 16.3746C29.5932 16.3119 28.9761 16.2601 28.9761 16.2574C28.9734 16.2574 28.9215 15.641 28.8587 14.8882L28.744 13.5245L29.9891 12.278C30.6744 11.5934 31.2341 11.037 31.2395 11.0397C31.2341 11.0425 31.2723 11.4434 31.3133 11.9289ZM20.706 15.1118C22.7319 15.2236 24.5503 15.8837 26.1584 17.0892L26.4178 17.2829L24.9216 18.7775L23.4281 20.2722L23.3407 20.2231C22.4971 19.7103 21.8118 19.4566 20.9162 19.3366C20.6186 19.2957 19.8132 19.2957 19.5238 19.3366C18.2187 19.5139 17.0883 20.0676 16.1873 20.9731C14.9177 22.2414 14.3198 24.0224 14.5655 25.7871C14.7785 27.3199 15.5839 28.6727 16.8235 29.5919C17.9074 30.3965 19.2808 30.8001 20.5858 30.7019C22.5107 30.5547 24.1353 29.5646 25.1182 27.9363C26.2185 26.1116 26.1912 23.7333 25.0526 21.9714L24.9434 21.805L26.4424 20.3076L27.9413 18.8102L28.1352 19.0694C30.658 22.4378 30.7918 26.9871 28.471 30.4701C28.0942 31.0347 27.7857 31.4111 27.2779 31.932C25.7953 33.4485 23.9278 34.4249 21.8391 34.7767C20.7852 34.9568 19.6111 34.9513 18.5436 34.7658C16.8153 34.4658 15.2317 33.7321 13.8693 32.5948C13.5526 32.333 12.9765 31.7602 12.6952 31.4274C11.3601 29.8591 10.5847 28.0427 10.3608 25.978C10.3117 25.4952 10.3117 24.5161 10.3608 24.0333C10.5629 22.1705 11.2209 20.4931 12.3321 19.0257C12.8372 18.3602 13.5744 17.6238 14.2324 17.122C15.8706 15.8837 17.8037 15.1855 19.8459 15.1036C20.22 15.0873 20.2964 15.09 20.706 15.1118ZM20.8944 21.4968C21.1729 21.5513 21.5114 21.6632 21.7107 21.7668L21.8609 21.8404L20.6131 23.0923C19.876 23.8342 19.3408 24.3879 19.3053 24.4533C19.1169 24.7834 19.1197 25.2661 19.3162 25.5689C19.3927 25.6889 19.5374 25.8334 19.6521 25.9071C19.977 26.1144 20.4684 26.1116 20.807 25.8989C20.8616 25.8662 21.4677 25.2798 22.1503 24.6006L23.3926 23.3624L23.4882 23.5669C23.5974 23.8015 23.6875 24.0879 23.7448 24.3933C23.8022 24.6879 23.8022 25.3207 23.7476 25.618C23.4609 27.1126 22.3332 28.2418 20.837 28.5281C20.5422 28.5827 19.9087 28.5827 19.6139 28.5281C18.1176 28.2418 16.99 27.1126 16.7033 25.618C16.646 25.3152 16.6487 24.6879 16.7061 24.3824C16.8945 23.4005 17.4433 22.5687 18.2678 22.0232C18.7429 21.7068 19.2125 21.5404 19.9005 21.4422C20.0562 21.4177 20.6732 21.4504 20.8944 21.4968Z" fill="black"/>
<path d="M49.4806 19.2729H51.2987L54.459 33.7164L53.2255 33.1846L52.3079 28.9369V28.8844H52.291L50.4729 20.5335H50.2894L48.417 28.8844H48.4V28.9533L47.4417 33.1813L46.2285 33.7131L49.4806 19.2729ZM48.6005 28.8844L50.3812 20.9405L52.1075 28.8844H48.6005ZM50.8977 27.8011L50.3642 25.2079L49.8306 27.8011H50.8977ZM47.6252 33.201L48.5631 29.0617H52.1448L53.0624 33.201L52.0905 33.7164L51.3564 30.0563H49.3719L48.6005 33.7164L47.6252 33.201ZM57.5446 27.9784H59.8792C60.1987 27.9784 60.4977 28.0375 60.7764 28.1557C61.0584 28.2738 61.3065 28.4413 61.5206 28.6546C61.7347 28.868 61.9046 29.1142 62.0269 29.3932C62.1492 29.6722 62.2104 29.9709 62.2104 30.2893V33.1846L61.1434 33.7V30.1646C61.1434 29.8101 61.0142 29.5081 60.7594 29.2586C60.5011 29.0091 60.1919 28.8844 59.8215 28.8844H58.6287V33.7164L57.5446 33.201V27.9784ZM62.1764 22.631V25.6346C62.1764 25.9301 62.1187 26.2124 61.9997 26.4783C61.8842 26.7441 61.7245 26.9772 61.524 27.1709C61.3201 27.3678 61.089 27.5188 60.8239 27.6337C60.5623 27.7453 60.2768 27.8011 59.971 27.8011H57.5446V20.4481H59.971C60.2768 20.4481 60.5623 20.5039 60.8239 20.6155C61.089 20.7271 61.3201 20.8847 61.524 21.0882C61.7279 21.2885 61.8842 21.5215 61.9997 21.7874C62.1187 22.0533 62.1764 22.3356 62.1764 22.631ZM58.6321 21.5314V26.6292H59.9914C60.2972 26.6292 60.5589 26.5176 60.7798 26.2911C61.0007 26.0679 61.1128 25.7889 61.1128 25.4574V22.7033C61.1128 22.3717 61.0007 22.0927 60.7798 21.8695C60.5589 21.643 60.2972 21.5314 59.9914 21.5314H58.6321V21.5314ZM63.4236 22.7033V25.4574C63.4236 25.9071 63.3454 26.3305 63.1857 26.7277C63.026 27.1249 62.8051 27.4762 62.523 27.7847C62.8187 28.0933 63.0498 28.4511 63.2231 28.8614C63.3964 29.2685 63.4813 29.705 63.4813 30.1679V33.7033L62.3973 33.1879V30.2926C62.3973 29.7247 62.224 29.2225 61.874 28.7826C61.524 28.346 61.089 28.0473 60.5589 27.8931C61.072 27.7617 61.4968 27.4893 61.8332 27.0757C62.1696 26.6621 62.3395 26.1828 62.3395 25.6379V22.6343C62.3395 22.3159 62.2784 22.0139 62.156 21.7283C62.0337 21.4427 61.8638 21.1966 61.6497 20.9832C61.4356 20.7698 61.1841 20.5991 60.8987 20.4744C60.6098 20.3496 60.304 20.2905 59.971 20.2905H57.5446H57.3611V20.4514V27.8044V27.9653V33.2076L56.2975 33.723V28.891V26.6325V21.5347V19.2729H58.6287H59.988C60.4671 19.2729 60.9123 19.3649 61.3269 19.5487C61.7449 19.7325 62.1085 19.9787 62.4211 20.2873C62.7337 20.5958 62.9784 20.9569 63.1551 21.3705C63.3352 21.7841 63.4236 22.2273 63.4236 22.7033ZM66.5636 27.9784H68.8982C69.2176 27.9784 69.5166 28.0375 69.7987 28.1557C70.0807 28.2738 70.3254 28.4413 70.5395 28.6546C70.7536 28.868 70.9235 29.1142 71.0458 29.3932C71.1682 29.6722 71.2293 29.9709 71.2293 30.2893V33.1846L70.1657 33.7V30.1646C70.1657 29.8101 70.0366 29.5081 69.7783 29.2586C69.52 29.0091 69.2108 28.8844 68.8404 28.8844H67.6476V33.7164L66.5636 33.201V27.9784V27.9784ZM71.1954 22.631V25.6346C71.1954 25.9301 71.1376 26.2124 71.0187 26.4783C70.9031 26.7441 70.7434 26.9772 70.5429 27.1709C70.339 27.3678 70.1079 27.5188 69.8462 27.6337C69.5812 27.7453 69.2991 27.8011 68.9899 27.8011H66.5636V20.4481H68.9899C69.2957 20.4481 69.5812 20.5039 69.8462 20.6155C70.1079 20.7271 70.339 20.8847 70.5429 21.0882C70.7468 21.2885 70.9031 21.5215 71.0187 21.7874C71.1376 22.0533 71.1954 22.3356 71.1954 22.631ZM67.6476 21.5314V26.6292H69.0069C69.3127 26.6292 69.5778 26.5176 69.7987 26.2911C70.0195 26.0679 70.1283 25.7889 70.1283 25.4574V22.7033C70.1283 22.3717 70.0195 22.0927 69.7987 21.8695C69.5778 21.643 69.3127 21.5314 69.0069 21.5314H67.6476V21.5314ZM72.4425 22.7033V25.4574C72.4425 25.9071 72.3643 26.3305 72.2046 26.7277C72.0449 27.1249 71.824 27.4762 71.5454 27.7847C71.8376 28.0933 72.0687 28.4511 72.242 28.8614C72.4153 29.2685 72.5003 29.705 72.5003 30.1679V33.7033L71.4162 33.1879V30.2926C71.4162 29.7247 71.2429 29.2225 70.8929 28.7826C70.5429 28.346 70.1079 28.0473 69.5778 27.8931C70.0943 27.7617 70.5191 27.4893 70.8555 27.0757C71.192 26.6621 71.3619 26.1828 71.3619 25.6379V22.6343C71.3619 22.3159 71.3007 22.0139 71.1784 21.7283C71.056 21.4427 70.8861 21.1966 70.672 20.9832C70.4579 20.7698 70.2065 20.5991 69.9176 20.4744C69.6288 20.3496 69.3229 20.2905 68.9899 20.2905H66.5636H66.3801V20.4514V27.8044V27.9653V33.2076L65.3164 33.723V28.891V26.6325V21.5347V19.2729H67.6476H69.0069C69.486 19.2729 69.9312 19.3649 70.3492 19.5487C70.7638 19.7325 71.1274 19.9787 71.44 20.2873C71.7527 20.5958 71.9974 20.9569 72.1741 21.3705C72.3542 21.7841 72.4425 22.2273 72.4425 22.7033ZM77.9918 19.2926H78.1583C78.6613 19.2926 79.1336 19.3846 79.5822 19.5651C80.0274 19.7489 80.4148 20.0017 80.7478 20.3201C81.0774 20.6418 81.3391 21.016 81.5294 21.4493C81.7197 21.8826 81.8115 22.3422 81.8115 22.8247V30.1646C81.8115 30.6504 81.7163 31.11 81.5294 31.54C81.3391 31.9733 81.0774 32.3475 80.7478 32.6692C80.4148 32.9909 80.0274 33.2404 79.5822 33.4242C79.1336 33.608 78.6613 33.7 78.1583 33.7H77.9918C77.4889 33.7 77.0165 33.608 76.568 33.4242C76.1194 33.2404 75.732 32.9909 75.4024 32.6692C75.0694 32.3508 74.8111 31.9733 74.6208 31.54C74.4305 31.1067 74.3353 30.6471 74.3353 30.1646V22.8247C74.3353 22.3389 74.4305 21.8793 74.6208 21.4493C74.8111 21.0193 75.0694 20.6418 75.4024 20.3201C75.732 20.0017 76.1194 19.7489 76.568 19.5651C77.0165 19.3846 77.4889 19.2926 77.9918 19.2926ZM80.7818 30.3419V22.7361C80.7818 22.3947 80.7138 22.073 80.5813 21.7677C80.4454 21.4657 80.2652 21.2031 80.0409 20.9865C79.8133 20.7665 79.5448 20.5926 79.2322 20.4645C78.9195 20.3332 78.5933 20.2709 78.2501 20.2709H78.0088C77.652 20.2709 77.319 20.3365 77.0097 20.4645C76.6971 20.5958 76.4286 20.7698 76.201 20.9865C75.9733 21.2064 75.7932 21.4657 75.6573 21.7677C75.5213 22.0697 75.4567 22.3914 75.4567 22.7361V30.3419C75.4567 30.6865 75.5247 31.005 75.6573 31.3004C75.7932 31.5958 75.9733 31.8551 76.201 32.0718C76.4286 32.2917 76.6971 32.4657 77.0097 32.5937C77.3224 32.725 77.6554 32.7907 78.0088 32.7907H78.2501C78.5933 32.7907 78.9195 32.725 79.2322 32.5937C79.5448 32.4624 79.8133 32.2884 80.0409 32.0718C80.2686 31.8519 80.4488 31.5958 80.5813 31.3004C80.7172 31.005 80.7818 30.6865 80.7818 30.3419ZM78.0088 20.4481H78.2501C78.5797 20.4481 78.889 20.5072 79.1778 20.6254C79.4667 20.7436 79.7147 20.9077 79.9288 21.1145C80.1429 21.3213 80.3128 21.5642 80.4352 21.8432C80.5575 22.1222 80.6187 22.421 80.6187 22.7394V30.3451C80.6187 30.6636 80.5575 30.9623 80.4352 31.2446C80.3128 31.5236 80.1429 31.7665 79.9288 31.9733C79.7147 32.1801 79.4633 32.3443 79.1778 32.4624C78.889 32.5806 78.5831 32.6397 78.2501 32.6397H78.0088C77.6792 32.6397 77.3699 32.5806 77.0811 32.4624C76.7922 32.3443 76.5442 32.1801 76.3301 31.9733C76.116 31.7665 75.9461 31.5236 75.8238 31.2446C75.7014 30.9656 75.6402 30.6668 75.6402 30.3451V22.7394C75.6402 22.421 75.7014 22.1222 75.8238 21.8432C75.9461 21.5642 76.116 21.3213 76.3301 21.1145C76.5442 20.9077 76.7956 20.7436 77.0811 20.6254C77.3699 20.5072 77.6792 20.4481 78.0088 20.4481ZM79.4803 30.1646V22.8247C79.4803 22.4702 79.3511 22.1682 79.0963 21.9187C78.838 21.6692 78.5288 21.5445 78.1583 21.5445H77.9918C77.6248 21.5445 77.3122 21.6692 77.0539 21.9187C76.7957 22.1682 76.6665 22.4702 76.6665 22.8247V30.1646C76.6665 30.5191 76.7957 30.8211 77.0539 31.0706C77.3122 31.3201 77.6214 31.4448 77.9918 31.4448H78.1583C78.5254 31.4448 78.838 31.3201 79.0963 31.0706C79.3511 30.8211 79.4803 30.5191 79.4803 30.1646ZM91.7683 32.597H91.9348L94.5242 19.8047L95.7714 19.2729L93.0528 32.8629L92.8863 33.7164H90.8474L90.6808 32.8465L89.7055 27.8208L88.7337 32.8465L88.5671 33.7164H86.5282L86.3617 32.8629L83.6431 19.2729L84.8563 19.8047L87.4287 32.597H87.5919L89.7055 22.6475L91.7683 32.597ZM89.8007 22.2043H89.6172L87.5239 32.1539L85.0228 19.808L86.0151 19.2762L87.5239 26.8459L88.5331 21.7283L88.6793 20.8946H90.7386L90.8847 21.7283L91.894 26.8459L93.4028 19.2762L94.3407 19.808L91.86 32.1539L89.8007 22.2043Z" fill="black"/>
</svg>
