<svg width="202" height="50" viewBox="0 0 202 50" fill="none" xmlns="http://www.w3.org/2000/svg">
<path d="M36.4453 30.7995C36.4453 27.6293 38.7857 26.0415 43.4613 26.0415C45.1037 26.0415 46.8539 26.1436 48.7111 26.3529V24.3253C48.7111 21.9061 46.8107 20.6991 43.0048 20.6991C41.3033 20.6991 39.564 20.9565 37.7819 21.4822V20.0662C39.564 19.5459 41.3033 19.2831 43.0048 19.2831C47.9111 19.2831 50.3644 21.0425 50.3644 24.5613V35.7827H49.3551L48.8239 34.6186C46.6497 35.3966 44.599 35.7827 42.6558 35.7827C38.5173 35.7827 36.4453 34.1197 36.4453 30.7996V30.7995ZM43.4613 27.4524C39.8861 27.4524 38.0987 28.552 38.0987 30.7512C38.0987 33.1651 39.6177 34.3666 42.6558 34.3666C44.669 34.3666 46.6873 33.9373 48.7111 33.079V27.7689C46.929 27.5594 45.1789 27.4524 43.4613 27.4524ZM68.9965 19.283V35.7825H67.7886L67.5952 33.6744C64.8629 35.0799 62.4796 35.7825 60.4559 35.7825C56.8702 35.7825 55.0773 33.7335 55.0773 29.6408V19.283H56.7305V29.6839C56.7305 32.768 58.2605 34.3074 61.3255 34.3074C62.9897 34.3074 64.9972 33.6102 67.3486 32.2155V19.283H68.9964H68.9965ZM73.7148 16.6117H74.7564L75.0677 19.283H79.2222V20.699H75.3682V31.1159C75.3682 33.2829 76.1896 34.3666 77.8374 34.3666H79.2222V35.7826H77.8697C75.0997 35.7826 73.7148 34.302 73.7148 31.336V16.6117H73.7148ZM89.4429 34.3666C93.5817 34.3666 95.6538 32.0708 95.6538 27.4684C95.6538 22.9518 93.5817 20.6936 89.4429 20.6936C85.2988 20.6936 83.2323 22.9518 83.2323 27.4684C83.2323 32.0708 85.2989 34.3666 89.4429 34.3666ZM81.579 27.5329C81.579 22.0346 84.1984 19.283 89.4429 19.283C94.6821 19.283 97.307 22.0346 97.307 27.5329C97.307 33.0201 94.6821 35.7666 89.4429 35.7666C84.2198 35.7666 81.6005 33.0201 81.579 27.5329ZM101.236 35.7826V19.2831H102.417L102.589 21.3588C104.806 19.9751 106.948 19.2831 109.025 19.2831C110.995 19.2831 112.364 20.0393 113.126 21.5467C115.128 20.0392 117.158 19.2831 119.213 19.2831C122.697 19.2831 124.436 21.112 124.436 24.765V35.7826H122.783V24.765C122.783 22.0938 121.484 20.7581 118.886 20.7581C116.911 20.7581 115.198 21.4717 113.744 22.8982V35.7826H112.09V24.4968C112.09 22.0079 110.904 20.7581 108.537 20.7581C106.481 20.7581 104.597 21.4717 102.89 22.8982V35.7826H101.236H101.236ZM128.838 30.7995C128.838 27.6293 131.179 26.0415 135.854 26.0415C137.497 26.0415 139.247 26.1436 141.104 26.3529V24.3253C141.104 21.9061 139.204 20.6991 135.398 20.6991C133.696 20.6991 131.957 20.9565 130.175 21.4822V20.0662C131.957 19.5459 133.696 19.2831 135.398 19.2831C140.304 19.2831 142.757 21.0425 142.757 24.5613V35.7827H141.748L141.217 34.6186C139.043 35.3966 136.992 35.7827 135.049 35.7827C130.91 35.7827 128.838 34.1197 128.838 30.7996V30.7995ZM135.854 27.4524C132.279 27.4524 130.492 28.552 130.492 30.7513C130.492 33.1651 132.011 34.3666 135.049 34.3666C137.062 34.3666 139.081 33.9373 141.104 33.0791V27.7689C139.322 27.5592 137.572 27.4523 135.854 27.4523V27.4524ZM147.47 16.6118H148.512L148.823 19.283H152.978V20.699H149.124V31.1159C149.124 33.2829 149.945 34.3666 151.593 34.3666H152.978V35.7826H151.625C148.855 35.7826 147.47 34.302 147.47 31.336V16.6118H147.47ZM169.361 27.8922H156.988C156.988 32.2102 159.532 34.3666 164.626 34.3666C166.086 34.3666 167.541 34.2112 169.001 33.8945V35.3105C167.541 35.6272 165.77 35.7826 163.687 35.7826C158.121 35.7826 155.335 32.9718 155.335 27.3452C155.335 21.9705 157.97 19.283 163.247 19.283C168.089 19.283 170.128 22.1529 169.361 27.8922V27.8922ZM156.988 26.417H167.804C168.057 22.5817 166.382 20.6668 162.775 20.6668C159.103 20.6668 157.176 22.5817 156.988 26.417H156.988ZM175.163 33.8194V35.7826H173.043V33.8194H175.163ZM180.746 13.313V14.8846H179.093V13.313H180.746ZM180.746 19.2831V35.7826H179.093V19.2831H180.746V19.2831ZM192.545 34.3666C196.684 34.3666 198.756 32.0709 198.756 27.4685C198.756 22.9519 196.684 20.6937 192.545 20.6937C188.401 20.6937 186.334 22.9519 186.334 27.4685C186.334 32.0708 188.401 34.3666 192.545 34.3666ZM184.681 27.533C184.681 22.0347 187.3 19.2831 192.545 19.2831C197.784 19.2831 200.409 22.0347 200.409 27.533C200.409 33.0202 197.784 35.7667 192.545 35.7667C187.322 35.7667 184.702 33.0201 184.681 27.533Z" fill="black"/>
<path fill-rule="evenodd" clip-rule="evenodd" d="M16.6132 33.3235L17.754 35.298C19.7845 38.8126 24.4151 40.0524 27.9322 38.0233C31.4492 35.9941 32.6903 31.367 30.6595 27.8525L23.0707 14.7177C22.9971 14.5906 22.9201 14.4659 22.8395 14.3437L22.826 14.323L22.8181 14.309C22.3335 13.4526 21.5733 12.7933 20.7609 12.2571L20.6378 12.1766L20.4816 12.0725L20.2094 11.9234C19.109 11.3219 17.8693 11.003 16.6151 11C15.2003 11.0034 13.8013 11.408 12.607 12.165L12.5909 12.1757C11.587 12.8137 10.7511 13.6876 10.1565 14.7171L2.56739 27.8521C0.53647 31.3667 1.77754 35.9938 5.29466 38.023C8.81179 40.0521 13.4423 38.8122 15.4728 35.2977L16.6136 33.3231L16.6132 33.3235ZM21.6022 15.5644L29.1913 28.6995C30.7577 31.4106 29.7978 34.9908 27.0846 36.5562C24.3718 38.1214 20.7885 37.1621 19.2223 34.451L11.6332 21.3159C10.0667 18.6048 11.027 15.0246 13.7399 13.4593C16.4527 11.8939 20.036 12.8534 21.6022 15.5644Z" fill="black"/>
</svg>
