<svg width="160" height="24" viewBox="0 0 160 24" fill="none" xmlns="http://www.w3.org/2000/svg">
<g id="Automate Logo">
<path id="_64510136" d="M28.1567 16.6396C28.1567 14.1035 30.0291 12.8332 33.7695 12.8332C35.0834 12.8332 36.4836 12.9149 37.9694 13.0823V11.4602C37.9694 9.52486 36.449 8.55928 33.4043 8.55928C32.0431 8.55928 30.6517 8.76522 29.226 9.18574V8.05294C30.6517 7.63668 32.0431 7.42648 33.4043 7.42648C37.3294 7.42648 39.292 8.834 39.292 11.649V20.6261H38.4846L38.0596 19.6949C36.3202 20.3173 34.6797 20.6261 33.1251 20.6261C29.8143 20.6261 28.1567 19.2957 28.1567 16.6397V16.6396ZM33.7695 13.9619C30.9094 13.9619 29.4794 14.8416 29.4794 16.601C29.4794 18.532 30.6946 19.4932 33.1251 19.4932C34.7357 19.4932 36.3503 19.1498 37.9694 18.4632V14.2151C36.5437 14.0475 35.1436 13.9619 33.7695 13.9619ZM54.1977 7.4264V20.626H53.2314L53.0766 18.9395C50.8908 20.0639 48.9841 20.626 47.3652 20.626C44.4967 20.626 43.0623 18.9868 43.0623 15.7126V7.4264H44.3849V15.7471C44.3849 18.2144 45.6089 19.4459 48.0609 19.4459C49.3923 19.4459 50.9982 18.8882 52.8793 17.7724V7.4264H54.1976H54.1977ZM57.9723 5.2894H58.8056L59.0547 7.4264H62.3782V8.5592H59.295V16.8927C59.295 18.6263 59.9521 19.4932 61.2704 19.4932H62.3782V20.626H61.2962C59.0802 20.626 57.9723 19.4416 57.9723 17.0688V5.2894H57.9723ZM70.5548 19.4932C73.8658 19.4932 75.5235 17.6567 75.5235 13.9748C75.5235 10.3615 73.8658 8.55491 70.5548 8.55491C67.2396 8.55491 65.5863 10.3615 65.5863 13.9748C65.5863 17.6566 67.2396 19.4932 70.5548 19.4932ZM64.2637 14.0263C64.2637 9.6277 66.3592 7.42641 70.5548 7.42641C74.7462 7.42641 76.8461 9.6277 76.8461 14.0263C76.8461 18.4161 74.7462 20.6133 70.5548 20.6133C66.3764 20.6133 64.2808 18.4161 64.2637 14.0263ZM79.9895 20.6261V7.42644H80.9343L81.0718 9.08707C82.8452 7.98007 84.5587 7.42644 86.2205 7.42644C87.7966 7.42644 88.8916 8.03141 89.5014 9.23736C91.1032 8.03138 92.7267 7.42644 94.3711 7.42644C97.1584 7.42644 98.5496 8.88958 98.5496 11.812V20.6261H97.2269V11.812C97.2269 9.67502 96.1878 8.60651 94.1094 8.60651C92.529 8.60651 91.159 9.17733 89.9954 10.3186V20.6261H88.6727V11.5974C88.6727 9.60633 87.7237 8.60651 85.8298 8.60651C84.185 8.60651 82.6777 9.17733 81.3121 10.3186V20.6261H79.9895H79.9895ZM102.071 16.6396C102.071 14.1035 103.944 12.8332 107.684 12.8332C108.998 12.8332 110.398 12.9149 111.884 13.0823V11.4602C111.884 9.52487 110.363 8.55929 107.319 8.55929C105.958 8.55929 104.566 8.76523 103.14 9.18575V8.05295C104.566 7.6367 105.958 7.4265 107.319 7.4265C111.244 7.4265 113.206 8.83401 113.206 11.649V20.6261H112.399L111.974 19.6949C110.235 20.3173 108.594 20.6261 107.04 20.6261C103.729 20.6261 102.071 19.2957 102.071 16.6397V16.6396ZM107.684 13.9619C104.824 13.9619 103.394 14.8416 103.394 16.601C103.394 18.5321 104.609 19.4933 107.04 19.4933C108.65 19.4933 110.265 19.1498 111.884 18.4633V14.2151C110.458 14.0474 109.058 13.9618 107.684 13.9618V13.9619ZM116.977 5.28941H117.81L118.059 7.42641H121.383V8.55921H118.299V16.8927C118.299 18.6263 118.956 19.4933 120.275 19.4933H121.383V20.6261H120.301C118.085 20.6261 116.977 19.4416 116.977 17.0688V5.28941H116.977ZM134.489 14.3138H124.591C124.591 17.7681 126.626 19.4933 130.702 19.4933C131.87 19.4933 133.034 19.369 134.202 19.1156V20.2484C133.034 20.5017 131.617 20.6261 129.95 20.6261C125.497 20.6261 123.268 18.3775 123.268 13.8761C123.268 9.57637 125.377 7.42641 129.598 7.42641C133.472 7.42641 135.103 9.72228 134.489 14.3138ZM124.591 13.1336H133.244C133.446 10.0654 132.106 8.53344 129.22 8.53344C126.283 8.53344 124.741 10.0653 124.591 13.1336H124.591ZM139.131 19.0555V20.6261H137.435V19.0555H139.131ZM143.597 2.65039V3.9077H142.275V2.65039H143.597ZM143.597 7.42644V20.6261H142.275V7.42644H143.597ZM153.036 19.4933C156.347 19.4933 158.005 17.6567 158.005 13.9748C158.005 10.3615 156.347 8.55495 153.036 8.55495C149.721 8.55495 148.068 10.3615 148.068 13.9748C148.068 17.6567 149.721 19.4933 153.036 19.4933ZM146.745 14.0264C146.745 9.62773 148.841 7.42644 153.036 7.42644C157.228 7.42644 159.328 9.62773 159.328 14.0264C159.328 18.4161 157.228 20.6134 153.036 20.6134C148.858 20.6134 146.762 18.4161 146.745 14.0264Z" fill="#09204E"/>
<path id="_284686160" fill-rule="evenodd" clip-rule="evenodd" d="M12.2906 18.6586L13.2033 20.2382C14.8277 23.0499 18.5322 24.0418 21.3459 22.4184C24.1595 20.7951 25.1523 17.0934 23.5277 14.2818L17.4566 3.77397C17.3978 3.67225 17.3362 3.57249 17.2717 3.47478L17.2609 3.45821L17.2546 3.44703C16.8669 2.76185 16.2588 2.23446 15.6088 1.80548L15.5103 1.7411L15.3854 1.65778L15.1676 1.53851C14.2873 1.0573 13.2955 0.802229 12.2922 0.799805C11.1603 0.802547 10.0411 1.12621 9.08568 1.73182L9.07284 1.74038C8.2697 2.25077 7.60095 2.94987 7.1253 3.77349L1.05401 14.2815C-0.570727 17.0932 0.422127 20.7949 3.23583 22.4182C6.04953 24.0415 9.75396 23.0496 11.3784 20.238L12.291 18.6583L12.2906 18.6586ZM16.2819 4.45133L22.3531 14.9594C23.6062 17.1283 22.8383 19.9925 20.6678 21.2447C18.4975 22.4969 15.6309 21.7295 14.3779 19.5606L8.30665 9.05249C7.05346 6.88367 7.82168 4.0195 9.99198 2.76723C12.1623 1.51496 15.0289 2.28251 16.2819 4.45133Z" fill="#09204E"/>
</g>
</svg>
