<svg width="79" height="32" viewBox="0 0 79 32" fill="none" xmlns="http://www.w3.org/2000/svg">
<path id="Vector" d="M39.8359 3.49193C40.3623 3.51654 40.865 3.71758 41.2632 4.06267C41.8058 4.57633 41.9481 5.43286 41.6913 6.11816C40.6929 8.17324 38.3185 9.54591 36.696 10C35.7254 10.2283 34.4983 10.2283 33.6132 9.88587C33.1847 10.1427 32.8233 10.9728 32.3001 10.6278C31.5428 10.0364 32.1984 9.11082 31.7612 8.45406C31.671 8.31882 31.444 8.30889 31.3298 8.08763C30.7301 6.77451 31.4725 5.51847 32.3001 4.51967C33.6798 2.98033 37.6382 1.26521 39.8359 3.49193ZM35.2402 4.51926C34.4693 4.66195 33.5987 4.99736 33.1281 5.54701C32.657 6.09624 32.3576 6.63183 32.643 7.20257C33.6422 6.4606 34.1273 5.43286 35.2407 4.80505C35.2402 4.69048 35.4115 4.60487 35.2402 4.51926ZM39.8934 4.80505C37.9235 4.63341 36.4392 6.11816 35.0405 7.54501C34.9549 7.77331 34.4412 8.03014 34.8407 8.28697C36.725 8.4582 38.5232 7.91641 39.8934 6.65995C40.2934 6.28897 40.5779 5.80384 40.379 5.28976C40.2934 5.09041 40.0919 4.89066 39.8934 4.80505ZM56.9623 13.3111C57.8759 15.5379 58.6464 19.0483 56.9623 21.1894C56.5057 21.7031 55.7066 22.1766 55.193 21.7887C53.3087 20.2762 52.5101 18.1066 51.3397 16.1653C51.1684 16.0796 51.1684 16.3084 51.0828 16.394C50.6548 18.3634 51.4538 20.9326 50.1126 22.4736C49.5989 22.5592 49.1183 22.2949 48.9421 21.7887C48.2854 19.7622 48.9698 17.6496 49.1411 15.6231C49.541 14.5953 49.7122 13.3968 50.5973 12.6258C52.0245 13.1966 52.7094 14.7955 53.5366 15.9659C54.1367 16.8506 54.6214 17.8498 55.3063 18.6488C55.9056 18.392 55.6107 17.6086 55.5921 17.1359C55.363 15.2806 54.8493 13.568 54.3637 11.7983C54.336 11.3417 54.0792 10.5708 54.5635 10.2854C55.8497 10.8565 56.3911 12.1978 56.9623 13.3111ZM48.342 12.6258C48.342 13.0543 47.9996 13.5895 47.7134 13.6536C44.9734 14.0816 41.9191 13.8248 39.3504 14.6809C39.2648 14.9948 39.6358 15.0519 39.8355 15.1375C42.0329 15.48 44.3456 15.5656 46.4867 16.1082C47.6187 16.3956 48.0285 17.7356 48.1141 18.8486C48.1667 19.7262 47.8292 20.7895 46.9723 21.3892C44.8605 22.7308 41.635 22.6733 39.4935 21.4467C38.675 20.9876 37.895 20.2481 37.8379 19.3345C37.8429 18.6091 38.1522 18.0379 38.6659 17.7646C40.7214 16.9366 43.2616 17.394 45.0317 18.4495C45.1451 19.0206 44.5272 18.9896 44.2315 19.1918C42.2616 20.3337 40.7777 17.9081 38.9509 18.7919C38.694 18.9631 38.5083 19.4408 38.8082 19.5914C41.063 20.5906 43.5751 19.8767 45.8014 19.2489C46.0582 19.1633 46.3726 18.9065 46.4007 18.6496C46.3151 17.736 45.2877 17.5367 44.631 17.2799C42.69 16.7947 40.5494 16.7947 38.4653 16.595C38.0658 16.5094 37.5567 16.231 37.438 15.9101C37.2097 15.2252 37.2097 14.2831 37.7234 13.7123C40.3777 11.3714 44.4023 11.5716 47.7705 12.1994C47.9992 12.2834 48.256 12.369 48.342 12.6258ZM35.8685 13.7107C36.1253 16.4506 36.268 18.9917 36.2109 21.8743C36.1538 22.2449 35.7258 22.3309 35.4404 22.4736C34.9838 22.5592 34.3936 22.462 34.2129 22.2168C33.5566 21.1601 33.7848 19.7336 33.7278 18.449C33.8134 16.4229 33.7848 14.2247 34.356 12.3405C34.4652 12.0667 34.7841 11.8268 35.0409 11.9976C35.7258 12.3405 35.8399 13.0258 35.8685 13.7107ZM67.5818 13.3111C67.7191 13.5419 67.8626 13.8984 67.5818 14.0531C66.2972 14.6238 64.5564 14.367 63.0717 14.5382C62.6722 14.8807 62.3578 15.4514 62.5001 15.9655C62.6436 16.0511 62.7714 16.1814 62.929 16.1648C63.8418 16.2223 65.2124 15.7368 65.8125 16.5929C65.9589 16.8477 65.7926 17.7989 65.3844 17.8204C64.2706 17.9639 62.4393 17.6806 61.9012 17.9639C61.2164 18.4205 61.273 19.3052 61.0162 20.0194C61.5017 20.3333 62.01 20.012 62.5857 19.9334C63.6428 19.7622 64.8133 19.4483 65.8687 19.6765C66.0685 20.0475 66.3543 20.4475 66.1541 20.9041C64.3546 22.3313 62.0336 23.7941 59.5608 22.7594C58.6327 22.3433 58.2191 20.9326 58.5335 19.7344C58.7328 18.8779 59.6175 18.0504 59.0757 17.1368C58.9901 16.7368 59.2188 16.3948 59.5612 16.3092C60.5029 16.3092 60.3028 15.1387 60.7883 14.5961C60.2461 13.9969 58.8763 14.0254 59.019 12.8264C59.6758 12.484 60.4752 12.5981 61.2164 12.484C62.9004 12.1411 64.7843 11.9414 66.4982 12.1411C66.8394 12.2098 67.2964 12.8831 67.5818 13.3111ZM26.8198 6.80305C29.4538 8.95615 32.8713 12.6263 32.4432 16.8506C31.9291 20.1906 28.3897 22.7023 25.3925 23.5017C22.4809 24.3579 18.8273 24.2722 15.8582 23.5874C15.6585 24.13 15.4587 24.7859 14.8309 25.0146C14.4314 25.1573 13.9173 25.0717 13.6034 24.8149C12.7187 23.9869 13.4322 22.3884 12.1476 21.8751C9.63551 20.8189 6.92367 18.7348 5.6395 16.1661C5.46828 15.6524 5.66804 15.1387 5.98195 14.7392C7.95183 13.1693 10.435 12.5415 12.9185 12.0559C13.0612 12.113 13.0041 11.9132 13.1183 11.8562C13.261 10.1435 13.318 8.40195 13.8602 6.86054C13.9839 6.64424 14.2883 6.57517 14.4885 6.71785C16.0584 7.91641 15.316 10.1721 16.0013 11.7987C18.9985 11.9414 21.9958 12.084 24.3647 13.7686C25.1642 14.4249 25.359 15.6785 25.1067 16.3948C24.8548 17.1099 24.0223 17.6223 23.2514 17.6785C22.7373 17.6785 21.767 17.7286 21.8241 17.3365C21.8812 16.944 23.5703 16.3017 23.0516 15.7661C22.3059 14.9965 18.575 14.5386 16.2627 14.2533C15.9773 14.1962 15.7155 14.2818 15.7155 14.5957C15.6585 16.7649 15.4873 19.1625 15.8582 21.2469C15.8868 21.39 16.058 21.5612 16.2011 21.5889C20.2827 22.2457 24.593 21.8743 27.79 19.5339C29.2743 18.3357 29.7599 16.6504 29.5026 14.7955C28.2181 9.62904 22.8233 6.51726 18.3989 4.51926C14.0889 2.6354 9.3216 1.66473 4.21224 1.92198C3.39873 1.98154 2.1096 2.26236 2.10009 2.55021C2.09057 2.83806 3.56044 2.74748 3.38425 3.29217C3.20848 3.83644 1.71463 3.51343 1.2721 3.37778C0.82957 3.24213 0.872582 2.60687 0.98673 2.20735C2.10009 0.237882 5.2069 0.0786546 6.61017 0.00958677C14.3739 -0.190586 21.8816 2.7661 26.8198 6.80305ZM12.8329 14.453C10.863 14.4816 8.7794 14.6813 6.95262 15.3662C6.58164 15.5089 6.12463 15.9084 6.41 16.394C7.15196 17.3928 8.21321 18.2129 9.20745 18.7915C10.2017 19.3693 11.5198 20.1046 12.7187 20.2762C13.0041 18.4205 13.0041 16.5937 12.9756 14.6813C12.861 14.6243 12.9752 14.5101 12.8329 14.453ZM71.8342 11.8553C71.7486 14.3385 69.4358 15.8803 69.4358 18.3634C69.5215 18.449 69.5794 18.5632 69.6927 18.5069C71.5488 16.48 73.3752 13.5969 76.087 12.7408C76.8017 12.6837 77.4473 13.3045 77.7145 13.7686C78.6566 15.6524 78.4291 18.3072 77.1156 20.0198C75.7603 21.701 73.4041 23.388 70.7221 23.1022C69.6091 25.8426 68.837 28.7257 68.4089 31.7229C68.1806 32.3222 67.6388 31.78 67.2964 31.6658C64.9845 29.839 66.8828 25.003 67.0396 24.386C67.1963 23.7706 67.815 22.3189 68.2675 21.1034C67.1827 19.1629 67.8675 16.8216 68.7522 15.0234C69.4371 13.8244 70.38 12.6254 71.493 11.7122C71.6344 11.7127 71.7486 11.7412 71.8342 11.8553ZM76.4307 14.9382C76.0883 14.8811 75.9452 15.3381 75.6602 15.4237C74.3475 16.908 73.034 18.3924 72.3772 20.1621C73.2627 20.2762 74.0042 19.7055 74.7756 19.3916C76.0883 18.5636 76.9163 17.1942 76.8307 15.6239C76.7732 15.3662 76.5449 15.1665 76.4307 14.9382Z" fill="#09204E"/>
</svg>
