<svg width="108" height="50" viewBox="0 0 108 50" fill="none" xmlns="http://www.w3.org/2000/svg">
<path d="M54.2949 9.36491C54.9528 9.39568 55.5813 9.64697 56.079 10.0783C56.7573 10.7204 56.9351 11.7911 56.6141 12.6477C55.3661 15.2165 52.3981 16.9324 50.37 17.5C49.1567 17.7854 47.6228 17.7854 46.5165 17.3573C45.9809 17.6784 45.5291 18.7159 44.8751 18.2848C43.9285 17.5455 44.7479 16.3885 44.2015 15.5676C44.0888 15.3985 43.805 15.3861 43.6623 15.1095C42.9127 13.4681 43.8407 11.8981 44.8751 10.6496C46.5998 8.72541 51.5477 6.58152 54.2949 9.36491ZM48.5503 10.6491C47.5867 10.8274 46.4984 11.2467 45.9101 11.9338C45.3213 12.6203 44.947 13.2898 45.3037 14.0032C46.5527 13.0758 47.1591 11.7911 48.5508 11.0063C48.5503 10.8631 48.7643 10.7561 48.5503 10.6491ZM54.3668 11.0063C51.9044 10.7918 50.049 12.6477 48.3006 14.4313C48.1936 14.7166 47.5515 15.0377 48.0509 15.3587C50.4062 15.5727 52.654 14.8955 54.3668 13.3249C54.8667 12.8612 55.2224 12.2548 54.9737 11.6122C54.8667 11.363 54.6149 11.1133 54.3668 11.0063ZM75.7028 21.6389C76.8448 24.4223 77.808 28.8104 75.7028 31.4868C75.1321 32.1289 74.1333 32.7208 73.4912 32.2359C71.1359 30.3453 70.1376 27.6332 68.6746 25.2066C68.4605 25.0996 68.4606 25.3854 68.3535 25.4925C67.8185 27.9543 68.8173 31.1657 67.1407 33.092C66.4986 33.199 65.8979 32.8686 65.6777 32.2359C64.8567 29.7027 65.7123 27.062 65.9263 24.5288C66.4263 23.2441 66.6403 21.7459 67.7466 20.7823C69.5307 21.4957 70.3868 23.4943 71.4207 24.9574C72.1709 26.0632 72.7768 27.3122 73.6329 28.311C74.382 27.99 74.0134 27.0108 73.9901 26.4199C73.7037 24.1008 73.0616 21.96 72.4547 19.7478C72.4201 19.1771 72.099 18.2135 72.7044 17.8567C74.3122 18.5707 74.9889 20.2472 75.7028 21.6389V21.6389ZM64.9275 20.7823C64.9275 21.3179 64.4995 21.9868 64.1417 22.067C60.7168 22.602 56.8989 22.281 53.688 23.3511C53.581 23.7435 54.0447 23.8149 54.2944 23.9219C57.0411 24.3499 59.932 24.457 62.6084 25.1352C64.0234 25.4945 64.5357 27.1695 64.6427 28.5607C64.7083 29.6577 64.2865 30.9869 63.2153 31.7365C60.5756 33.4135 56.5438 33.3417 53.8669 31.8083C52.8438 31.2345 51.8688 30.3101 51.7974 29.1681C51.8036 28.2614 52.1903 27.5474 52.8324 27.2057C55.4018 26.1707 58.577 26.7425 60.7897 28.0618C60.9313 28.7758 60.159 28.737 59.7893 28.9898C57.327 30.4172 55.4721 27.3851 53.1886 28.4899C52.8676 28.7039 52.6354 29.301 53.0102 29.4892C55.8288 30.7382 58.9689 29.8459 61.7518 29.0611C62.0728 28.9541 62.4657 28.6331 62.5009 28.312C62.3939 27.17 61.1097 26.9209 60.2887 26.5998C57.8626 25.9934 55.1867 25.9934 52.5817 25.7437C52.0823 25.6367 51.4459 25.2888 51.2975 24.8876C51.0121 24.0315 51.0121 22.8538 51.6542 22.1404C54.9722 19.2143 60.0028 19.4645 64.2131 20.2493C64.499 20.3542 64.82 20.4613 64.9275 20.7823V20.7823ZM49.3356 22.1383C49.6566 25.5633 49.835 28.7396 49.7636 32.3429C49.6923 32.8061 49.1572 32.9136 48.8005 33.092C48.2298 33.199 47.4921 33.0775 47.2661 32.7709C46.4457 31.4501 46.7311 29.667 46.6597 28.0613C46.7667 25.5286 46.7311 22.7809 47.445 20.4256C47.5815 20.0833 47.9801 19.7835 48.3011 19.997C49.1572 20.4256 49.2999 21.2822 49.3356 22.1383V22.1383ZM88.9772 21.6389C89.1488 21.9274 89.3282 22.373 88.9772 22.5664C87.3715 23.2798 85.1955 22.9588 83.3396 23.1728C82.8402 23.6008 82.4473 24.3143 82.6251 24.9569C82.8045 25.0639 82.9643 25.2267 83.1612 25.206C84.3022 25.2779 86.0155 24.671 86.7656 25.7411C86.9486 26.0596 86.7408 27.2486 86.2305 27.2755C84.8383 27.4549 82.5491 27.1008 81.8766 27.4549C81.0205 28.0256 81.0913 29.1314 80.7702 30.0243C81.3772 30.4166 82.0125 30.0149 82.7322 29.9167C84.0535 29.7027 85.5166 29.3103 86.8359 29.5957C87.0856 30.0594 87.4428 30.5593 87.1926 31.1301C84.9433 32.9141 82.042 34.7427 78.951 33.4492C77.7909 32.9291 77.2739 31.1657 77.6668 29.6681C77.916 28.5974 79.0218 27.5629 78.3446 26.4209C78.2376 25.921 78.5235 25.4935 78.9515 25.3865C80.1287 25.3865 79.8785 23.9234 80.4854 23.2452C79.8076 22.4961 78.0954 22.5317 78.2738 21.033C79.0947 20.605 80.094 20.7477 81.0204 20.605C83.1256 20.1764 85.4804 19.9267 87.6227 20.1764C88.0492 20.2622 88.6205 21.1039 88.9772 21.6389ZM38.0247 13.5038C41.3173 16.1952 45.5891 20.7828 45.054 26.0632C44.4114 30.2383 39.9871 33.3779 36.2406 34.3772C32.6011 35.4473 28.0342 35.3403 24.3228 34.4842C24.0731 35.1625 23.8234 35.9824 23.0386 36.2683C22.5392 36.4466 21.8966 36.3396 21.5042 36.0186C20.3984 34.9836 21.2902 32.9855 19.6845 32.3439C16.5444 31.0236 13.1546 28.4185 11.5494 25.2076C11.3354 24.5655 11.5851 23.9234 11.9774 23.424C14.4398 21.4616 17.5437 20.6768 20.6481 20.0699C20.8265 20.1412 20.7551 19.8915 20.8978 19.8202C21.0762 17.6794 21.1475 15.5024 21.8253 13.5757C21.9799 13.3053 22.3604 13.219 22.6106 13.3973C24.573 14.8955 23.645 17.7151 24.5017 19.7483C28.2482 19.9267 31.9947 20.1051 34.9559 22.2107C35.9552 23.0311 36.1987 24.5981 35.8834 25.4935C35.5685 26.3873 34.5279 27.0279 33.5642 27.0982C32.9216 27.0982 31.7088 27.1607 31.7802 26.6706C31.8515 26.18 33.9628 25.3772 33.3145 24.7077C32.3824 23.7456 27.7188 23.1733 24.8284 22.8166C24.4717 22.7453 24.1444 22.8523 24.1444 23.2446C24.0731 25.9562 23.8591 28.9531 24.3228 31.5586C24.3585 31.7375 24.5725 31.9515 24.7514 31.9862C29.8534 32.8071 35.2413 32.3429 39.2375 29.4173C41.0929 27.9197 41.6999 25.813 41.3783 23.4943C39.7726 17.0363 33.0292 13.1466 27.4986 10.6491C22.1112 8.29426 16.152 7.08092 9.7653 7.40247C8.74841 7.47692 7.137 7.82794 7.12511 8.18776C7.11322 8.54757 8.95055 8.43435 8.73032 9.11521C8.5106 9.79555 6.64329 9.39179 6.09012 9.22222C5.53696 9.05266 5.59073 8.25858 5.73341 7.75919C7.12511 5.29735 11.0086 5.09832 12.7627 5.01198C22.4674 4.76177 31.852 8.45762 38.0247 13.5038V13.5038ZM20.5411 23.0663C18.0788 23.102 15.4743 23.3517 13.1908 24.2078C12.727 24.3861 12.1558 24.8855 12.5125 25.4925C13.44 26.7409 14.7665 27.7661 16.0093 28.4894C17.2521 29.2116 18.8997 30.1308 20.3984 30.3453C20.7551 28.0256 20.7551 25.7422 20.7195 23.3517C20.5763 23.2803 20.719 23.1376 20.5411 23.0663V23.0663ZM94.2927 19.8192C94.1857 22.9231 91.2948 24.8504 91.2948 27.9543C91.4018 28.0613 91.4742 28.204 91.6159 28.1337C93.936 25.6 96.219 21.9962 99.6088 20.926C100.502 20.8547 101.309 21.6307 101.643 22.2107C102.821 24.5655 102.536 27.884 100.895 30.0248C99.2004 32.1263 96.2552 34.235 92.9026 33.8778C91.5114 37.3033 90.5462 40.9071 90.0112 44.6536C89.7258 45.4027 89.0486 44.7249 88.6205 44.5823C85.7306 42.2988 88.1035 36.2538 88.2995 35.4825C88.4954 34.7132 89.2688 32.8986 89.8344 31.3792C88.4783 28.9536 89.3344 26.027 90.4403 23.7792C91.2964 22.2805 92.4751 20.7818 93.8662 19.6403C94.043 19.6408 94.1857 19.6765 94.2927 19.8192V19.8192ZM100.038 23.6727C99.6103 23.6014 99.4315 24.1726 99.0753 24.2796C97.4344 26.1351 95.7925 27.9905 94.9715 30.2026C96.0784 30.3453 97.0053 29.6319 97.9695 29.2395C99.6103 28.2045 100.645 26.4928 100.538 24.5298C100.466 24.2078 100.181 23.9581 100.038 23.6727Z" fill="black"/>
</svg>
