<svg width="165" height="50" viewBox="0 0 165 50" fill="none" xmlns="http://www.w3.org/2000/svg">
<path d="M35.0483 12.0513C31.7327 9.97697 27.3677 10.4667 23.4747 12.9222C19.5938 10.4681 15.2261 9.97697 11.9146 12.0513C6.67608 15.3357 6.03918 23.7957 10.4934 30.9452C13.7766 36.2185 18.9109 39.3062 23.4814 39.2492C28.0519 39.3062 33.1863 36.2185 36.4695 30.9452C40.9183 23.7957 40.2868 15.3357 35.0483 12.0513ZM12.9017 29.4366C11.983 27.9755 11.29 26.3833 10.8463 24.7142C10.4518 23.2657 10.301 21.7613 10.4001 20.263C10.5989 17.6216 11.6712 15.5636 13.4182 14.4675C15.1653 13.3713 17.4749 13.3075 19.9346 14.2857C20.3085 14.4365 20.6745 14.6063 21.0312 14.7944C19.6641 16.044 18.4755 17.477 17.4992 19.0529C14.7948 23.3942 13.9699 28.2265 14.9138 32.0767C14.1619 31.262 13.4882 30.3781 12.9017 29.4366ZM36.1179 24.7142C35.6736 26.3831 34.9807 27.9752 34.0625 29.4366C33.4763 30.38 32.8026 31.2657 32.0504 32.0821C32.8942 28.6294 32.3209 24.4008 30.252 20.434C30.1857 20.3013 30.0664 20.2032 29.9237 20.1641C29.781 20.125 29.6285 20.1486 29.5042 20.2291L23.0541 24.2733C22.9354 24.3474 22.851 24.4659 22.8195 24.6026C22.7881 24.7393 22.8121 24.8829 22.8865 25.0018L23.833 26.5199C23.9069 26.639 24.025 26.7237 24.1613 26.7552C24.2975 26.7868 24.4407 26.7626 24.5592 26.6881L28.7402 24.0684C28.8754 24.4754 29.0107 24.8756 29.1121 25.2894C29.5065 26.7379 29.6573 28.2422 29.5583 29.7405C29.3595 32.3833 28.2872 34.4413 26.5402 35.5375C25.639 36.0902 24.6065 36.3901 23.5504 36.4057H23.4152C22.359 36.3904 21.3264 36.0905 20.4254 35.5375C18.677 34.4413 17.6047 32.3833 17.4059 29.7405C17.3076 28.2423 17.4584 26.738 17.8522 25.2894C18.7589 21.9386 20.6321 18.9312 23.2367 16.6449C24.36 15.6552 25.6395 14.8597 27.0229 14.2911C29.4758 13.3129 31.7895 13.3767 33.5379 14.4729C35.2863 15.569 36.3573 17.6271 36.556 20.2685C36.6565 21.7645 36.5085 23.2669 36.1179 24.7142Z" fill="black"/>
<path d="M72.0623 18.4719C68.2815 18.4719 65.2258 21.4332 65.2258 25.2007C65.2258 28.9424 68.2815 31.8553 72.0623 31.8553C75.8687 31.8553 78.9243 28.9469 78.9243 25.2007C78.9243 21.4348 75.8732 18.4735 72.0623 18.4735V18.4719ZM72.0623 28.3374C70.3196 28.3374 68.993 26.9233 68.993 25.175C68.993 23.4266 70.3196 21.9913 72.0623 21.9913C73.8306 21.9913 75.1571 23.4311 75.1571 25.1795C75.1571 26.9278 73.8306 28.3435 72.0623 28.3435V28.3374ZM87.4491 13.3039H80.4921C80.3402 13.3011 80.1938 13.3604 80.0865 13.4683C79.9792 13.5762 79.9205 13.7234 79.9238 13.8757V30.8919C79.9128 31.0494 79.968 31.2043 80.0759 31.3192C80.1839 31.4341 80.3348 31.4985 80.4921 31.4969H87.4491C93.0163 31.4969 96.8845 27.7824 96.8845 22.3785C96.8845 16.9414 93.0163 13.3039 87.4491 13.3039ZM87.6135 27.9034H83.8071V16.8884H87.6135C90.6948 16.8884 92.8188 19.2009 92.8188 22.3709C92.8188 25.488 90.6948 27.9034 87.6135 27.9034ZM110.732 18.8379H108.117C107.817 18.8617 107.583 19.1081 107.574 19.4096V20.1885C106.979 19.2009 105.632 18.4735 103.956 18.4735C100.694 18.4735 97.6382 21.0446 97.6382 25.1508C97.6382 29.2343 100.667 31.8523 103.93 31.8523C105.613 31.8523 106.986 31.1263 107.582 30.1387V30.9433C107.583 31.2436 107.825 31.4868 108.124 31.4893H110.74C110.885 31.4926 111.025 31.4362 111.128 31.3331C111.231 31.2299 111.287 31.0891 111.284 30.9433V19.4096C111.288 19.2598 111.232 19.1146 111.128 19.0069C111.024 18.8992 110.882 18.8383 110.732 18.8379ZM104.648 28.3662C102.916 28.3662 101.615 27.0307 101.615 25.178C101.615 23.3253 102.916 21.9913 104.648 21.9913C106.38 21.9913 107.681 23.3238 107.681 25.1765C107.681 27.0292 106.382 28.3646 104.648 28.3646V28.3662ZM125.414 13.304H122.798C122.65 13.2995 122.507 13.3548 122.4 13.4575C122.293 13.5602 122.232 13.7016 122.23 13.85V20.1371C121.627 19.2009 120.261 18.4735 118.553 18.4735C115.315 18.4735 112.312 21.0446 112.312 25.1508C112.312 29.2343 115.341 31.8523 118.604 31.8523C120.287 31.8523 121.556 31.1263 122.255 30.1387V30.9433C122.256 31.2439 122.498 31.4876 122.798 31.4893H125.414C125.559 31.4931 125.7 31.4368 125.803 31.3335C125.905 31.2303 125.962 31.0892 125.958 30.9433V13.853C125.962 13.7066 125.907 13.5647 125.804 13.4608C125.701 13.3569 125.56 13.3002 125.414 13.304ZM119.329 28.3979C117.605 28.3979 116.314 27.0488 116.314 25.1765C116.314 23.3041 117.609 21.955 119.329 21.955C121.049 21.955 122.344 23.3041 122.344 25.1765C122.344 27.0488 121.055 28.3979 119.329 28.3979ZM140.092 13.304H137.481C137.333 13.2995 137.189 13.3548 137.082 13.4574C136.975 13.56 136.913 13.7014 136.911 13.85V20.1371C136.316 19.2009 134.942 18.4735 133.234 18.4735C129.996 18.4735 126.993 21.0446 126.993 25.1508C126.993 29.2343 130.023 31.8523 133.286 31.8523C134.969 31.8523 136.237 31.1263 136.937 30.1387V30.9433C136.938 31.2442 137.181 31.4876 137.481 31.4893H140.092C140.237 31.4931 140.378 31.4367 140.48 31.3335C140.583 31.2302 140.639 31.0891 140.635 30.9433V13.853C140.64 13.7067 140.584 13.5648 140.481 13.4609C140.379 13.3569 140.238 13.3002 140.092 13.304ZM134.008 28.3979C132.282 28.3979 130.993 27.0488 130.993 25.1765C130.993 23.3041 132.288 21.955 134.008 21.955C135.728 21.955 137.023 23.3041 137.023 25.1765C137.023 27.0488 135.737 28.3979 134.012 28.3979H134.008ZM154.413 19.7227L150.51 33.1514C149.756 35.541 148.076 36.9703 145.46 36.9703C144.271 36.9703 143.188 36.7268 142.34 36.2398C141.845 35.957 141.435 35.6983 141.435 35.2839C141.435 35.0268 141.518 34.8937 141.669 34.6533L142.444 33.4887C142.662 33.1635 142.823 33.0577 143.059 33.0577C143.245 33.0623 143.425 33.1252 143.574 33.2376C144.061 33.5537 144.513 33.826 145.202 33.826C146.007 33.826 146.622 33.5673 146.954 32.6054L147.289 31.4908H145.709C145.32 31.4908 145.106 31.2579 145.009 30.9448L141.516 19.7227C141.387 19.2811 141.506 18.8395 142.153 18.8395H144.904C145.24 18.8395 145.475 18.9544 145.623 19.4369L148.202 28.4735L150.614 19.4369C150.691 19.1253 150.899 18.8395 151.314 18.8395H153.923C154.437 18.8379 154.592 19.2009 154.413 19.7227ZM64.24 23.717V30.8904C64.2424 31.0484 64.181 31.2006 64.0696 31.3123C63.9582 31.424 63.8065 31.4857 63.649 31.4832H61.4903C61.3327 31.4861 61.1807 31.4246 61.0693 31.3128C60.9578 31.201 60.8965 31.0485 60.8994 30.8904V29.0074C59.5291 30.7437 57.1457 31.8371 54.4504 31.8371C49.3882 31.8371 45.4326 28.0168 45.4326 22.5781C45.4326 16.9263 49.7033 13.0303 55.0986 13.0303C59.0814 13.0303 62.2652 14.7484 63.6792 18.2042C63.7188 18.2956 63.7408 18.3936 63.744 18.4931C63.744 18.6565 63.637 18.7805 63.2918 18.9L60.7712 19.8739C60.6192 19.9372 60.4488 19.9399 60.2949 19.8815C60.1599 19.8016 60.0542 19.6801 59.9934 19.5352C59.0889 17.8095 57.4789 16.6374 55.0006 16.6374C51.7867 16.6374 49.4847 19.1556 49.4847 22.4209C49.4847 25.5863 51.4445 28.1892 55.0926 28.1892C57.0116 28.1892 58.5417 27.2818 59.2547 26.2851H56.9784C56.821 26.2875 56.6692 26.2259 56.5578 26.1142C56.4465 26.0024 56.385 25.8502 56.3875 25.6922V23.7427C56.385 23.5847 56.4465 23.4325 56.5578 23.3208C56.6692 23.209 56.821 23.1474 56.9784 23.1498H63.649C63.8036 23.1419 63.9545 23.1983 64.0664 23.3056C64.1782 23.4129 64.241 23.5617 64.24 23.717ZM154.484 16.1821V16.0082C154.484 15.996 154.488 15.9842 154.496 15.9749C154.505 15.9672 154.516 15.9629 154.528 15.9628H155.63C155.641 15.9624 155.653 15.9668 155.661 15.9749C155.669 15.9842 155.673 15.996 155.673 16.0082V16.1821C155.673 16.1938 155.669 16.2051 155.661 16.2139C155.653 16.222 155.641 16.2264 155.63 16.226H155.227V17.3165C155.226 17.3412 155.206 17.361 155.182 17.3618H154.974C154.962 17.3618 154.951 17.3568 154.944 17.3482C154.935 17.3399 154.93 17.3285 154.93 17.3165V16.226H154.528C154.516 16.2269 154.504 16.2226 154.496 16.2142C154.487 16.2057 154.483 16.194 154.484 16.1821ZM156.41 16.0022L156.712 16.7024L157.013 16.0022C157.018 15.9898 157.026 15.9792 157.037 15.9719C157.05 15.9654 157.064 15.9623 157.078 15.9628H157.428C157.44 15.962 157.451 15.9661 157.459 15.9742C157.468 15.9823 157.472 15.9936 157.472 16.0052V17.318C157.473 17.3296 157.468 17.341 157.46 17.3494C157.452 17.3578 157.441 17.3623 157.429 17.3618H157.233C157.222 17.3622 157.21 17.3579 157.202 17.3497C157.193 17.3415 157.189 17.3298 157.19 17.318V16.3273L156.866 17.0472C156.861 17.0608 156.853 17.0729 156.842 17.082C156.829 17.0889 156.815 17.0921 156.801 17.0911H156.641C156.627 17.0919 156.614 17.0887 156.602 17.082C156.59 17.0733 156.582 17.0611 156.578 17.0472L156.255 16.3273V17.318C156.255 17.3297 156.251 17.341 156.243 17.3497C156.235 17.3571 156.224 17.3614 156.213 17.3618H156.012C156.002 17.3619 155.991 17.3575 155.984 17.3497C155.975 17.3415 155.971 17.3298 155.972 17.318V16.0052C155.971 15.9936 155.976 15.9823 155.984 15.9742C155.992 15.9661 156.004 15.962 156.015 15.9628H156.355C156.368 15.9625 156.382 15.9656 156.394 15.9719C156.402 15.9802 156.408 15.9907 156.41 16.0022Z" fill="black"/>
</svg>
