<svg width="122" height="50" viewBox="0 0 122 50" fill="none" xmlns="http://www.w3.org/2000/svg">
<path d="M111.179 5H108.5C114.75 8.71032 118.6 13.0754 118.6 17.7579C118.6 31.7063 88.9964 41.9841 52.8853 41.9841C32.0321 42.004 13.4607 38.373 1.47656 32.7381V35.6746C13.8774 41.3889 32.3099 45 52.9051 45C91.8932 45 120.524 33.0952 120.524 18.4325C120.524 13.5317 117.111 8.94841 111.179 5Z" fill="black"/>
<path d="M17.0916 28.016L12.1512 20.4168H10.8218L15.2266 12.6985H11.9726L7.50831 20.4168L12.3496 28.016H17.0916ZM44.9488 15.1588H46.0202C47.925 15.1588 48.7781 15.893 48.7781 17.5398C48.7781 18.4525 48.5004 19.1866 48.0043 19.6429C47.6274 19.9803 47.1115 20.0993 45.802 20.0993C45.802 20.0993 45.2662 20.0993 44.9488 20.0993V15.1588V15.1588ZM44.9488 22.5993H46.7543C46.9131 22.6191 48.1234 22.6588 49.3535 22.2422C50.6035 21.8255 52.5877 20.1985 52.5877 17.6191C52.5877 16.3096 52.2504 15.2382 51.6155 14.4247C50.6234 13.1945 48.9567 12.6191 46.3972 12.6191H41.1988V28.016H44.9686V22.5993H44.9488ZM27.4488 17.8176L29.0956 21.885H25.6829L27.4488 17.8176ZM24.7504 24.1072H30.0281L31.5956 28.016H35.9805L29.2543 12.6985H26.8734L20.0281 28.016H23.0639L24.7504 24.1072ZM5.76228 12.6985H1.47656V28.016H5.76228V12.6985ZM66.9329 25.4366H61.5758V12.6985H57.8059V28.016H66.9329V25.4366ZM77.8853 17.8176L79.5321 21.885H76.1194L77.8853 17.8176ZM75.1869 24.1072H80.4647L82.0321 28.016H86.3972L79.6908 12.6985H77.3099L70.4647 28.016H73.5004L75.1869 24.1072ZM94.8694 28.016V18.1747C96.0996 20.0001 101.457 28.016 101.457 28.016H104.889V12.6985H101.06V22.5001C99.8496 20.6549 94.6115 12.7183 94.6115 12.7183H91.04V28.0358H94.8694V28.016Z" fill="black"/>
</svg>
