<svg width="66" height="50" viewBox="0 0 66 50" fill="none" xmlns="http://www.w3.org/2000/svg">
<path fill-rule="evenodd" clip-rule="evenodd" d="M22.6679 10.1719H9.26165C9.26165 10.1719 9.85348 10.6893 9.92682 11.0915C10.0377 11.7025 9.76002 12.31 9.76002 12.31L2.75825 34.7176C2.75825 34.7176 2.4451 35.5292 2.05248 35.8914C1.73524 36.1844 1.08984 36.4389 1.08984 36.4389H10.9229C10.9229 36.4389 10.2748 36.1056 10.0929 35.7168C9.93194 35.3722 10.0251 34.7459 10.0251 34.7459L12.4559 26.3906C12.4559 26.3906 24.0388 28.0955 27.5503 19.4254C30.4993 12.1466 24.7132 10.1719 22.6679 10.1719V10.1719ZM21.4371 18.9816C19.0708 25.924 12.986 24.7062 12.986 24.7062L16.8228 12.2019H19.0561C19.0565 12.2019 23.8802 11.8133 21.4371 18.9816V18.9816Z" fill="black"/>
<path fill-rule="evenodd" clip-rule="evenodd" d="M54.7364 20.4868C51.2413 21.0517 46.0079 22.9851 46.0079 22.9851L45.397 25.6557C45.397 25.6557 47.222 24.7988 48.4544 24.4413C49.5371 24.1278 51.2887 23.8737 51.2887 23.8737L48.3405 34.4954C48.3405 34.4954 40.0616 36.3276 44.6202 22.208C45.6289 19.0827 49.0827 14.0175 52.5659 12.8686C56.4782 11.5781 60.5177 14.5346 60.5177 14.5346L61.6836 11.0365C61.6836 11.0365 57.3132 9.88962 54.4768 10.0087C48.8685 10.244 45.1855 11.7279 41.2824 15.7616C36.3355 20.8756 36.7834 28.4655 36.7834 28.4655L34.8947 29.9405L33.0427 31.3868C33.0427 31.3868 31.8573 29.5728 31.4412 28.2714C31.1052 27.2221 30.9442 25.4899 30.9442 25.4899C30.9442 25.4899 34.1084 23.9099 35.7253 22.5969C38.9451 19.9816 37.7826 16.9275 35.638 16.6171C33.1597 16.2583 31.9454 16.4224 30.1207 17.8721C27.3263 20.0928 27.2182 24.7623 27.2182 24.7623C27.2182 24.7623 18.0452 26.9885 19.2002 33.6256C19.5417 35.589 22.5101 36.7621 24.9361 36.7175C28.7174 36.5503 31.2959 34.8553 31.2959 34.8553C31.2959 34.8553 33.6267 38.0765 39.4503 39.4989C46.9521 41.3311 54.4628 37.5494 54.4628 37.5494L54.9032 36.3835C54.9032 36.3835 49.3454 39.3325 43.0354 38.1304C37.175 37.0146 34.1091 33.1576 34.1091 33.1576C34.1091 33.1576 35.143 32.3628 35.7826 31.8279C36.3543 31.3496 37.2204 30.5688 37.2204 30.5688C37.2204 30.5688 38.3471 34.0806 41.3977 35.5102C48.1181 38.6601 55.403 34.9958 55.403 34.9958L58.9629 23.2075C58.9629 23.2075 60.4512 23.0656 61.4053 23.0707C62.4498 23.0758 64.0769 23.2631 64.0769 23.2631L64.9096 20.1477C64.9092 20.1477 58.633 19.8567 54.7364 20.4868ZM26.6072 34.2734C25.1636 34.3641 23.5788 33.7729 23.2145 32.4358C22.2147 28.7653 27.4399 26.9332 27.4399 26.9332C27.4399 26.9332 27.8236 29.001 28.3189 30.2403C28.8088 31.4663 29.9386 33.2125 29.9386 33.2125C29.9386 33.2125 28.3391 34.1656 26.6072 34.2734V34.2734ZM34.3304 18.2599C35.3159 18.4046 35.0581 20.598 33.7048 21.5787C32.6494 22.701 30.8326 23.2072 30.8326 23.2072C30.8326 23.2072 30.6095 17.7142 34.3304 18.2599Z" fill="black"/>
</svg>
